<svg version="1.1" xmlns="http://www.w3.org/2000/svg" viewBox="0 0 449.30759808009554 330.4001659506932" width="898.6151961601911" height="660.8003319013864">
  <!-- svg-source:excalidraw -->
  
  <defs>
    <style>
      @font-face {
        font-family: "Virgil";
        src: url("https://excalidraw.com/Virgil.woff2");
      }
      @font-face {
        font-family: "Cascadia";
        src: url("https://excalidraw.com/Cascadia.woff2");
      }
    </style>
  </defs>
  <rect x="0" y="0" width="449.30759808009554" height="330.4001659506932" fill="#ffffff"></rect><g stroke-linecap="round"><g transform="translate(190.02456914792742 164.74398638346383) rotate(0 50.756699329529766 0.27203241685022306)"><path d="M-0.29 -0.06 C16.2 -0.13, 82.63 0.26, 99.53 0.06 M1.76 -1.14 C18.57 -1.04, 85.31 1.58, 101.8 1.68" stroke="black" stroke-width="4" fill="none"></path></g></g><g stroke-linecap="round"><g transform="translate(192.93077835168936 163.78080720905166) rotate(0 -2.216899507677425 -15.789481555854906)"><path d="M-0.06 -0.85 C-1.07 -0.93, -4.08 -0.36, -5.57 -0.8 C-7.07 -1.24, -8.54 -2.24, -9.03 -3.48 C-9.51 -4.71, -8.53 -5.57, -8.49 -8.2 C-8.44 -10.82, -9.13 -16.61, -8.74 -19.22 C-8.35 -21.84, -7.22 -22.46, -6.16 -23.91 C-5.11 -25.36, -3.94 -26.52, -2.43 -27.93 C-0.91 -29.34, 1.36 -31.56, 2.94 -32.37 C4.52 -33.18, 6.43 -32.84, 7.05 -32.78 M-1.55 1.32 C-2.75 0.92, -5.58 -1.4, -6.44 -2.55 C-7.3 -3.7, -5.91 -4.82, -6.73 -5.58 C-7.55 -6.33, -10.8 -4.77, -11.35 -7.07 C-11.91 -9.37, -10.64 -16.89, -10.05 -19.36 C-9.46 -21.83, -9.22 -20.26, -7.82 -21.88 C-6.42 -23.51, -3.82 -27.31, -1.65 -29.12 C0.52 -30.93, 3.98 -32.46, 5.19 -32.74 C6.4 -33.02, 5.24 -30.85, 5.61 -30.78" stroke="black" stroke-width="4" fill="none"></path></g></g><g stroke-linecap="round"><g transform="translate(197.0107686220556 130.7961800932395) rotate(0 20.981471100453035 -16.97172119292854)"><path d="M-0.85 0.16 C-1.24 -1.98, -2.25 -10, -2.63 -12.89 C-3 -15.77, -3.22 -15.65, -3.1 -17.14 C-2.99 -18.62, -2.81 -20.1, -1.93 -21.78 C-1.06 -23.46, 0.53 -25.59, 2.17 -27.19 C3.8 -28.8, 5.73 -30.28, 7.87 -31.42 C10.02 -32.56, 12.2 -33.79, 15.05 -34.05 C17.91 -34.31, 21.69 -33.48, 24.99 -32.98 C28.29 -32.48, 32.59 -31.88, 34.84 -31.05 C37.09 -30.23, 36.74 -30.19, 38.48 -28.03 C40.23 -25.87, 44.09 -20.01, 45.31 -18.09 M0.91 -0.81 C0.45 -2.84, -2.44 -8.92, -3.19 -11.94 C-3.95 -14.96, -3.88 -17.5, -3.63 -18.93 C-3.37 -20.36, -2.91 -18.69, -1.66 -20.52 C-0.42 -22.34, 2.1 -27.9, 3.82 -29.87 C5.55 -31.84, 6.69 -31.95, 8.7 -32.33 C10.7 -32.7, 13.32 -31.99, 15.86 -32.12 C18.4 -32.24, 20.48 -33.04, 23.93 -33.09 C27.38 -33.13, 33.98 -33.27, 36.56 -32.41 C39.13 -31.55, 37.85 -30.41, 39.38 -27.92 C40.92 -25.43, 44.87 -19.37, 45.77 -17.47" stroke="black" stroke-width="4" fill="none"></path></g></g><g stroke-linecap="round"><g transform="translate(242.98947338499778 112.03414461274306) rotate(0 19.49121163567463 4.589567620481731)"><path d="M0.16 0.72 C0.91 0.34, 2.07 -2.2, 4.48 -3.16 C6.88 -4.12, 10.23 -4.83, 14.57 -5.01 C18.91 -5.2, 26.7 -5.1, 30.52 -4.28 C34.33 -3.46, 36.12 -3.18, 37.48 -0.08 C38.84 3.03, 38.62 12, 38.66 14.34 M-1.22 0.06 C-0.11 -0.62, 4 -4.42, 6.59 -5.04 C9.19 -5.66, 10.3 -3.9, 14.35 -3.67 C18.41 -3.45, 27.21 -4.27, 30.92 -3.7 C34.63 -3.14, 35.05 -3.14, 36.6 -0.27 C38.15 2.59, 39.98 11.32, 40.2 13.46" stroke="black" stroke-width="4" fill="none"></path></g></g><g stroke-linecap="round"><g transform="translate(288.86925517527686 163.92645858225563) rotate(0 5.00777449853814 -19.940402933004563)"><path d="M0.72 -1.13 C2.45 -1.8, 7.08 -2.13, 9.5 -3.85 C11.91 -5.56, 14.11 -9.23, 15.22 -11.41 C16.32 -13.6, 16.01 -14.36, 16.15 -16.94 C16.29 -19.51, 16.34 -23.89, 16.04 -26.89 C15.74 -29.89, 15.69 -32.95, 14.34 -34.93 C12.99 -36.92, 10.13 -37.92, 7.97 -38.78 C5.8 -39.65, 3.5 -40.38, 1.36 -40.14 C-0.78 -39.9, -3.34 -37.82, -4.86 -37.34 C-6.37 -36.87, -7.33 -37.54, -7.74 -37.27 M-0.35 0.89 C1.33 -0.11, 6.32 -3.62, 8.79 -5.42 C11.26 -7.23, 13.29 -7.69, 14.47 -9.94 C15.65 -12.18, 15.34 -16.16, 15.87 -18.9 C16.4 -21.64, 18.24 -24.06, 17.64 -26.36 C17.04 -28.66, 13.76 -30.44, 12.25 -32.69 C10.74 -34.95, 10.61 -38.61, 8.58 -39.9 C6.55 -41.19, 2.56 -40.74, 0.06 -40.45 C-2.44 -40.16, -5.25 -38.56, -6.4 -38.17 C-7.54 -37.77, -6.8 -38.12, -6.83 -38.09" stroke="black" stroke-width="4" fill="none"></path></g></g><g transform="translate(208.58284007120852 124.93537842587301) rotate(0 33.729405849353526 14.793599056733996)"><text x="0" y="20.587198113468002" font-family="Virgil, Segoe UI Emoji" font-size="23.66975849077438px" fill="#000000" text-anchor="start" style="white-space: pre;" direction="ltr">iCloud</text></g><g stroke-linecap="round" transform="translate(13.823894208151728 46.197880215923334) rotate(0 47.33489970745802 29.383967087022455)"><path d="M0 0 C34.73 0, 69.47 0, 94.67 0 M0 0 C24.65 0, 49.29 0, 94.67 0 M94.67 0 C94.67 23.03, 94.67 46.07, 94.67 58.77 M94.67 0 C94.67 14.11, 94.67 28.22, 94.67 58.77 M94.67 58.77 C75.7 58.77, 56.74 58.77, 0 58.77 M94.67 58.77 C73.5 58.77, 52.34 58.77, 0 58.77 M0 58.77 C0 40.02, 0 21.28, 0 0 M0 58.77 C0 44.79, 0 30.8, 0 0" stroke="#000000" stroke-width="2" fill="none"></path></g><g stroke-linecap="round" transform="translate(17.456821048002894 50.89931494984705) rotate(0 43.70197286760802 25.216786300135666)"><path d="M0 0 L87.4 0 L87.4 50.43 L0 50.43" stroke="none" stroke-width="0" fill="#000000"></path><path d="M0 0 C27.82 0, 55.64 0, 87.4 0 M0 0 C23.58 0, 47.17 0, 87.4 0 M87.4 0 C87.4 18.34, 87.4 36.67, 87.4 50.43 M87.4 0 C87.4 15.59, 87.4 31.18, 87.4 50.43 M87.4 50.43 C58.47 50.43, 29.53 50.43, 0 50.43 M87.4 50.43 C55.83 50.43, 24.25 50.43, 0 50.43 M0 50.43 C0 39.43, 0 28.43, 0 0 M0 50.43 C0 38.45, 0 26.46, 0 0" stroke="#000000" stroke-width="2" fill="none"></path></g><g stroke-linecap="round"><g transform="translate(10 105.17951596878297) rotate(0 51.27701181027406 0)"><path d="M0 0 C26.97 0, 53.94 0, 102.55 0 M0 0 C22.23 0, 44.46 0, 102.55 0" stroke="#000000" stroke-width="2" fill="none"></path></g></g><g stroke-linecap="round"><g transform="translate(12.781240176819495 109.76030607094788) rotate(0 48.88991970649282 0)"><path d="M0 0 C35.08 0, 70.15 0, 97.78 0 M0 0 C23.79 0, 47.58 0, 97.78 0" stroke="#000000" stroke-width="2" fill="none"></path></g></g><g stroke-linecap="round"><g transform="translate(110.60500208451549 109.91089748137998) rotate(0 1.041394506261426 -2.310114066987012)" fill-rule="evenodd"><path d="" stroke="none" stroke-width="0" fill="#000000" fill-rule="evenodd"></path><path d="M0 0 C0.31 -0.28, 1.52 -0.9, 1.87 -1.67 C2.21 -2.44, 2.03 -4.13, 2.06 -4.62 M0 0 C0.31 -0.28, 1.52 -0.9, 1.87 -1.67 C2.21 -2.44, 2.03 -4.13, 2.06 -4.62" stroke="#000000" stroke-width="2" fill="none"></path></g></g><g stroke-linecap="round"><g transform="translate(12.695486734769304 109.91089748138049) rotate(0 -1.1796327150571955 -2.2609627038596187)" fill-rule="evenodd"><path d="" stroke="none" stroke-width="0" fill="#000000" fill-rule="evenodd"></path><path d="M0 0 C-0.3 -0.15, -1.4 -0.15, -1.79 -0.9 C-2.19 -1.66, -2.26 -3.92, -2.36 -4.52 M0 0 C-0.3 -0.15, -1.4 -0.15, -1.79 -0.9 C-2.19 -1.66, -2.26 -3.92, -2.36 -4.52" stroke="#000000" stroke-width="2" fill="none"></path></g></g><g stroke-linecap="round" transform="translate(53.942579078462785 105.23424350677055) rotate(0 7.021623303911852 0.3240749217190029)"><path d="M0 0 L14.04 0 L14.04 0.65 L0 0.65" stroke="none" stroke-width="0" fill="#000000"></path><path d="M0 0 C3.73 0, 7.47 0, 14.04 0 M0 0 C4.15 0, 8.31 0, 14.04 0 M14.04 0 C14.04 0.21, 14.04 0.42, 14.04 0.65 M14.04 0 C14.04 0.22, 14.04 0.43, 14.04 0.65 M14.04 0.65 C9.75 0.65, 5.45 0.65, 0 0.65 M14.04 0.65 C8.46 0.65, 2.87 0.65, 0 0.65 M0 0.65 C0 0.45, 0 0.26, 0 0 M0 0.65 C0 0.41, 0 0.16, 0 0" stroke="#000000" stroke-width="2" fill="none"></path></g><g transform="translate(36.31604869054058 113.4002272761202) rotate(0 27.18335225098363 5.351053592713313)"><text x="0" y="6.70210718542663" font-family="Virgil, Segoe UI Emoji" font-size="8.561685748341297px" fill="#000000" text-anchor="start" style="white-space: pre;" direction="ltr">MacbookHome</text></g><g stroke-linecap="round" transform="translate(29.854444127598413 205.91827674524308) rotate(0 47.33489970745802 29.383967087022455)"><path d="M0 0 C19.32 0, 38.63 0, 94.67 0 M0 0 C26.12 0, 52.25 0, 94.67 0 M94.67 0 C94.67 20.56, 94.67 41.13, 94.67 58.77 M94.67 0 C94.67 18.7, 94.67 37.4, 94.67 58.77 M94.67 58.77 C60.07 58.77, 25.48 58.77, 0 58.77 M94.67 58.77 C64.21 58.77, 33.75 58.77, 0 58.77 M0 58.77 C0 35.85, 0 12.93, 0 0 M0 58.77 C0 41.08, 0 23.38, 0 0" stroke="#000000" stroke-width="2" fill="none"></path></g><g stroke-linecap="round" transform="translate(33.48737096744952 210.61971147916705) rotate(0 43.70197286760802 25.21678630013568)"><path d="M0 0 L87.4 0 L87.4 50.43 L0 50.43" stroke="none" stroke-width="0" fill="#000000"></path><path d="M0 0 C25.83 0, 51.66 0, 87.4 0 M0 0 C29.63 0, 59.26 0, 87.4 0 M87.4 0 C87.4 15.36, 87.4 30.72, 87.4 50.43 M87.4 0 C87.4 12.13, 87.4 24.26, 87.4 50.43 M87.4 50.43 C54.13 50.43, 20.85 50.43, 0 50.43 M87.4 50.43 C64.13 50.43, 40.86 50.43, 0 50.43 M0 50.43 C0 34.86, 0 19.28, 0 0 M0 50.43 C0 38.33, 0 26.23, 0 0" stroke="#000000" stroke-width="2" fill="none"></path></g><g stroke-linecap="round"><g transform="translate(26.03054991944657 264.89991249810254) rotate(0 51.277011810274075 0)"><path d="M0 0 C36.38 0, 72.76 0, 102.55 0 M0 0 C36.2 0, 72.39 0, 102.55 0" stroke="#000000" stroke-width="2" fill="none"></path></g></g><g stroke-linecap="round"><g transform="translate(28.811790096266122 269.480702600268) rotate(0 48.88991970649283 0)"><path d="M0 0 C20.53 0, 41.07 0, 97.78 0 M0 0 C28.49 0, 56.98 0, 97.78 0" stroke="#000000" stroke-width="2" fill="none"></path></g></g><g stroke-linecap="round"><g transform="translate(126.63555200396223 269.6312940106999) rotate(0 1.0413945062614403 -2.310114066987012)" fill-rule="evenodd"><path d="" stroke="none" stroke-width="0" fill="#000000" fill-rule="evenodd"></path><path d="M0 0 C0.31 -0.28, 1.52 -0.9, 1.87 -1.67 C2.21 -2.44, 2.03 -4.13, 2.06 -4.62 M0 0 C0.31 -0.28, 1.52 -0.9, 1.87 -1.67 C2.21 -2.44, 2.03 -4.13, 2.06 -4.62" stroke="#000000" stroke-width="2" fill="none"></path></g></g><g stroke-linecap="round"><g transform="translate(28.726036654215875 269.63129401069983) rotate(0 -1.1796327150571955 -2.2609627038596045)" fill-rule="evenodd"><path d="" stroke="none" stroke-width="0" fill="#000000" fill-rule="evenodd"></path><path d="M0 0 C-0.3 -0.15, -1.4 -0.15, -1.79 -0.9 C-2.19 -1.66, -2.26 -3.92, -2.36 -4.52 M0 0 C-0.3 -0.15, -1.4 -0.15, -1.79 -0.9 C-2.19 -1.66, -2.26 -3.92, -2.36 -4.52" stroke="#000000" stroke-width="2" fill="none"></path></g></g><g stroke-linecap="round" transform="translate(69.97312899790938 264.95464003609027) rotate(0 7.021623303911852 0.3240749217190171)"><path d="M0 0 L14.04 0 L14.04 0.65 L0 0.65" stroke="none" stroke-width="0" fill="#000000"></path><path d="M0 0 C3.3 0, 6.61 0, 14.04 0 M0 0 C4.02 0, 8.03 0, 14.04 0 M14.04 0 C14.04 0.25, 14.04 0.49, 14.04 0.65 M14.04 0 C14.04 0.14, 14.04 0.28, 14.04 0.65 M14.04 0.65 C10.61 0.65, 7.17 0.65, 0 0.65 M14.04 0.65 C11 0.65, 7.95 0.65, 0 0.65 M0 0.65 C0 0.43, 0 0.21, 0 0 M0 0.65 C0 0.41, 0 0.18, 0 0" stroke="#000000" stroke-width="2" fill="none"></path></g><g transform="translate(60.76170520473897 273.5120241121721) rotate(0 17.765497927808184 5.351053592713328)"><text x="0" y="6.70210718542663" font-family="Virgil, Segoe UI Emoji" font-size="8.561685748341286px" fill="#000000" text-anchor="start" style="white-space: pre;" direction="ltr">Mac Mini</text></g><g stroke-linecap="round" transform="translate(291.13610311111313 243.5890066806885) rotate(0 47.33489970745802 29.383967087022455)"><path d="M0 0 C24.65 0, 49.3 0, 94.67 0 M0 0 C30.65 0, 61.31 0, 94.67 0 M94.67 0 C94.67 18.01, 94.67 36.01, 94.67 58.77 M94.67 0 C94.67 23.02, 94.67 46.04, 94.67 58.77 M94.67 58.77 C57.93 58.77, 21.18 58.77, 0 58.77 M94.67 58.77 C60.27 58.77, 25.87 58.77, 0 58.77 M0 58.77 C0 44.65, 0 30.53, 0 0 M0 58.77 C0 45.08, 0 31.38, 0 0" stroke="#000000" stroke-width="2" fill="none"></path></g><g stroke-linecap="round" transform="translate(294.7690299509642 248.29044141461236) rotate(0 43.70197286760799 25.21678630013568)"><path d="M0 0 L87.4 0 L87.4 50.43 L0 50.43" stroke="none" stroke-width="0" fill="#000000"></path><path d="M0 0 C27.43 0, 54.86 0, 87.4 0 M0 0 C22.13 0, 44.25 0, 87.4 0 M87.4 0 C87.4 13.22, 87.4 26.44, 87.4 50.43 M87.4 0 C87.4 11.28, 87.4 22.56, 87.4 50.43 M87.4 50.43 C54.65 50.43, 21.9 50.43, 0 50.43 M87.4 50.43 C56.81 50.43, 26.21 50.43, 0 50.43 M0 50.43 C0 31.96, 0 13.5, 0 0 M0 50.43 C0 32.71, 0 14.98, 0 0" stroke="#000000" stroke-width="2" fill="none"></path></g><g stroke-linecap="round"><g transform="translate(287.31220890296123 302.57064243354796) rotate(0 51.27701181027405 0)"><path d="M0 0 C29.04 0, 58.08 0, 102.55 0 M0 0 C40.67 0, 81.34 0, 102.55 0" stroke="#000000" stroke-width="2" fill="none"></path></g></g><g stroke-linecap="round"><g transform="translate(290.0934490797812 307.15143253571273) rotate(0 48.88991970649283 0)"><path d="M0 0 C38.74 0, 77.49 0, 97.78 0 M0 0 C21.67 0, 43.35 0, 97.78 0" stroke="#000000" stroke-width="2" fill="none"></path></g></g><g stroke-linecap="round"><g transform="translate(387.9172109874771 307.3020239461455) rotate(0 1.0413945062614403 -2.310114066987012)" fill-rule="evenodd"><path d="" stroke="none" stroke-width="0" fill="#000000" fill-rule="evenodd"></path><path d="M0 0 C0.31 -0.28, 1.52 -0.9, 1.87 -1.67 C2.21 -2.44, 2.03 -4.13, 2.06 -4.62 M0 0 C0.31 -0.28, 1.52 -0.9, 1.87 -1.67 C2.21 -2.44, 2.03 -4.13, 2.06 -4.62" stroke="#000000" stroke-width="2" fill="none"></path></g></g><g stroke-linecap="round"><g transform="translate(290.0076956377301 307.30202394614525) rotate(0 -1.1796327150571813 -2.2609627038596045)" fill-rule="evenodd"><path d="" stroke="none" stroke-width="0" fill="#000000" fill-rule="evenodd"></path><path d="M0 0 C-0.3 -0.15, -1.4 -0.15, -1.79 -0.9 C-2.19 -1.66, -2.26 -3.92, -2.36 -4.52 M0 0 C-0.3 -0.15, -1.4 -0.15, -1.79 -0.9 C-2.19 -1.66, -2.26 -3.92, -2.36 -4.52" stroke="#000000" stroke-width="2" fill="none"></path></g></g><g stroke-linecap="round" transform="translate(331.25478798142467 302.6253699715352) rotate(0 7.021623303911838 0.3240749217190171)"><path d="M0 0 L14.04 0 L14.04 0.65 L0 0.65" stroke="none" stroke-width="0" fill="#000000"></path><path d="M0 0 C4.25 0, 8.5 0, 14.04 0 M0 0 C5.38 0, 10.77 0, 14.04 0 M14.04 0 C14.04 0.24, 14.04 0.48, 14.04 0.65 M14.04 0 C14.04 0.21, 14.04 0.41, 14.04 0.65 M14.04 0.65 C10.74 0.65, 7.44 0.65, 0 0.65 M14.04 0.65 C9.39 0.65, 4.74 0.65, 0 0.65 M0 0.65 C0 0.49, 0 0.33, 0 0 M0 0.65 C0 0.5, 0 0.35, 0 0" stroke="#000000" stroke-width="2" fill="none"></path></g><g transform="translate(322.10434676838145 309.6980587652665) rotate(0 27.825478682109207 5.351053592713328)"><text x="0" y="6.70210718542663" font-family="Virgil, Segoe UI Emoji" font-size="8.5616857483413px" fill="#000000" text-anchor="start" style="white-space: pre;" direction="ltr">MacBookWork</text></g><g stroke-linecap="round" transform="translate(390 10) rotate(0 24.653799040047772 46.733849828661945)"><path d="M0 0 C10.75 0, 21.51 0, 49.31 0 M0 0 C13.69 0, 27.37 0, 49.31 0 M49.31 0 C49.31 20.97, 49.31 41.93, 49.31 93.47 M49.31 0 C49.31 29.22, 49.31 58.43, 49.31 93.47 M49.31 93.47 C33.33 93.47, 17.35 93.47, 0 93.47 M49.31 93.47 C31.13 93.47, 12.96 93.47, 0 93.47 M0 93.47 C0 65.23, 0 37, 0 0 M0 93.47 C0 57.04, 0 20.61, 0 0" stroke="#000000" stroke-width="2" fill="none"></path></g><g stroke-linecap="round" transform="translate(392.2671799001546 14.605654765723244) rotate(0 22.336712664103402 40.9767813715079)"><path d="M0 0 L44.67 0 L44.67 81.95 L0 81.95" stroke="none" stroke-width="0" fill="#000000"></path><path d="M0 0 C14.5 0, 29 0, 44.67 0 M0 0 C9.46 0, 18.92 0, 44.67 0 M44.67 0 C44.67 27.22, 44.67 54.45, 44.67 81.95 M44.67 0 C44.67 27.3, 44.67 54.6, 44.67 81.95 M44.67 81.95 C28.09 81.95, 11.5 81.95, 0 81.95 M44.67 81.95 C28.23 81.95, 11.78 81.95, 0 81.95 M0 81.95 C0 56.84, 0 31.72, 0 0 M0 81.95 C0 58.51, 0 35.07, 0 0" stroke="#000000" stroke-width="1" fill="none"></path></g><g stroke-linecap="round" transform="translate(406.5261729828894 98.72658445731486) rotate(0 7.992165622872619 1.3546043428597727)"><path d="M0.68 0 L15.31 0 L15.98 2.03 L15.31 2.71 L0.68 2.71 L0 2.03 L0.68 0" stroke="none" stroke-width="0" fill="#000000"></path><path d="M0.68 0 M0.68 0 C6.03 0, 11.39 0, 15.31 0 M0.68 0 C5.54 0, 10.4 0, 15.31 0 M15.31 0 C15.76 0, 15.98 0.23, 15.98 0.68 M15.31 0 C15.76 0, 15.98 0.23, 15.98 0.68 M15.98 0.68 C15.98 0.95, 15.98 1.23, 15.98 2.03 M15.98 0.68 C15.98 1.18, 15.98 1.68, 15.98 2.03 M15.98 2.03 C15.98 2.48, 15.76 2.71, 15.31 2.71 M15.98 2.03 C15.98 2.48, 15.76 2.71, 15.31 2.71 M15.31 2.71 C10.9 2.71, 6.5 2.71, 0.68 2.71 M15.31 2.71 C10.82 2.71, 6.34 2.71, 0.68 2.71 M0.68 2.71 C0.23 2.71, 0 2.48, 0 2.03 M0.68 2.71 C0.23 2.71, 0 2.48, 0 2.03 M0 2.03 C0 1.55, 0 1.08, 0 0.68 M0 2.03 C0 1.56, 0 1.09, 0 0.68 M0 0.68 C0 0.23, 0.23 0, 0.68 0 M0 0.68 C0 0.23, 0.23 0, 0.68 0" stroke="#000000" stroke-width="1" fill="none"></path></g><g stroke-linecap="round" transform="translate(406.1432007412559 11.806379527548529) rotate(0 7.788974971443622 0.6095719542868956)"><path d="M0.3 0 L15.27 0 L15.58 0.91 L0.3 1.22 L0.3 0" stroke="none" stroke-width="0" fill="#000000"></path><path d="M0.3 0 M0.3 0 C3.79 0, 7.28 0, 15.27 0 M0.3 0 C4.21 0, 8.12 0, 15.27 0 M15.27 0 C15.48 0, 15.58 0.1, 15.58 0.3 M15.27 0 C15.48 0, 15.58 0.1, 15.58 0.3 M15.58 0.3 C15.58 0.48, 15.58 0.66, 15.58 0.91 M15.58 0.3 C15.58 0.43, 15.58 0.56, 15.58 0.91 M15.58 0.91 C15.58 1.12, 15.48 1.22, 15.27 1.22 M15.58 0.91 C15.58 1.12, 15.48 1.22, 15.27 1.22 M15.27 1.22 C9.74 1.22, 4.21 1.22, 0.3 1.22 M15.27 1.22 C11.82 1.22, 8.37 1.22, 0.3 1.22 M0.3 1.22 C0.1 1.22, 0 1.12, 0 0.91 M0.3 1.22 C0.1 1.22, 0 1.12, 0 0.91 M0 0.91 C0 0.73, 0 0.55, 0 0.3 M0 0.91 C0 0.7, 0 0.49, 0 0.3 M0 0.3 C0 0.1, 0.1 0, 0.3 0 M0 0.3 C0 0.1, 0.1 0, 0.3 0" stroke="#000000" stroke-width="1" fill="none"></path></g><g transform="translate(410 110) rotate(0 12.842528622511963 5.351053592713313)"><text x="0" y="6.70210718542663" font-family="Virgil, Segoe UI Emoji" font-size="8.561685748341297px" fill="#000000" text-anchor="start" style="white-space: pre;" direction="ltr">iPhone</text></g><g stroke-linecap="round"><g transform="translate(323.2157763792274 60.144424522837014) rotate(84.72278982639352 11.718367571866139 46.44177548394435)"><path d="M-0.72 0.82 C3.31 15.88, 20.11 76.34, 24.16 91.51 M1.1 0.2 C5.08 15.92, 20.12 77.21, 23.79 92.68" stroke="#000000" stroke-width="1" fill="none"></path></g><g transform="translate(323.2157763792274 60.144424522837014) rotate(84.72278982639352 11.718367571866139 46.44177548394435)"><path d="M23.22 92.11 L15.64 80.27 L28.31 79.17 L22.28 90.8" stroke="none" stroke-width="0" fill="#000000" fill-rule="evenodd"></path><path d="M24.81 94.04 C20.03 89.82, 17.74 86.43, 15.05 81.84 M23.33 92.06 C21.71 89.08, 17.61 85.99, 14.72 81.16 M13.52 81.62 C20.46 81.03, 24.17 79.25, 27.51 76.89 M14.38 80.63 C18.83 80.19, 23.82 78.99, 26.27 77.36 M25.78 77.78 C27.31 81.11, 26.34 87.22, 23.47 91.32 M26.75 77.24 C25.62 82.22, 25.78 85.33, 24.05 93.05 M23.79 92.68 C23.79 92.68, 23.79 92.68, 23.79 92.68 M23.79 92.68 C23.79 92.68, 23.79 92.68, 23.79 92.68" stroke="#000000" stroke-width="1" fill="none"></path></g></g><g stroke-linecap="round"><g transform="translate(346.572636312197 132.86747327011824) rotate(83.6868633492982 -10.48534840301761 -46.639267942404196)"><path d="M0.73 0.97 C-2.76 -14.9, -17.61 -78.49, -21.33 -94.25 M-0.34 0.43 C-3.86 -15.33, -18.1 -76.8, -21.7 -92.82" stroke="#000000" stroke-width="1" fill="none"></path></g><g transform="translate(346.572636312197 132.86747327011824) rotate(83.6868633492982 -10.48534840301761 -46.639267942404196)"><path d="M-21.34 -93.74 L-12.54 -81.54 L-25.29 -77.01 L-22.5 -93.45" stroke="none" stroke-width="0" fill="#000000" fill-rule="evenodd"></path><path d="M-20.49 -91.44 C-19.39 -88.69, -16.07 -87.82, -13.88 -80.62 M-21.07 -92.19 C-20.38 -90.32, -18.56 -87.5, -11.94 -81.02 M-12.97 -80.11 C-14.73 -79.47, -18.45 -80.19, -24.82 -78.06 M-12.52 -80.99 C-16.97 -80.1, -21.1 -78.21, -25.27 -78.28 M-25.37 -76.86 C-24.18 -82.74, -22.25 -90.41, -22.93 -93.2 M-24.15 -78.23 C-23.99 -84.09, -21.96 -88.13, -21.41 -92.81 M-21.7 -92.82 C-21.7 -92.82, -21.7 -92.82, -21.7 -92.82 M-21.7 -92.82 C-21.7 -92.82, -21.7 -92.82, -21.7 -92.82" stroke="#000000" stroke-width="1" fill="none"></path></g></g><g stroke-linecap="round"><g transform="translate(115.27458769105544 120.08078210191417) rotate(0 34.38891625082405 1.317370035883087)"><path d="M-0.83 -0.6 C10.55 -0.16, 55.83 1.4, 67.34 1.9 M0.94 1.7 C12.77 2.37, 58.51 2.88, 69.61 3.24" stroke="#000000" stroke-width="1" fill="none"></path></g><g transform="translate(115.27458769105544 120.08078210191417) rotate(0 34.38891625082405 1.317370035883087)"><path d="M71.53 4.04 L53.97 8.72 L56.41 -4.94 L69.89 1.34" stroke="none" stroke-width="0" fill="#000000" fill-rule="evenodd"></path><path d="M68.85 2.18 C66.02 4.57, 63.6 5.82, 56.16 8.6 M70.04 2.94 C65.27 5.48, 61.95 7.38, 55.74 9.36 M56.91 9.54 C57.08 5.14, 56.86 1.65, 55.78 -3.92 M56.24 9.08 C56.41 4.76, 56.52 0.07, 56.04 -3.5 M56.1 -3.14 C61.38 -0.21, 65.4 1.89, 68.35 3.68 M55.9 -3.82 C58.52 -2.19, 62.46 -1.35, 70.12 2.65 M69.61 3.24 C69.61 3.24, 69.61 3.24, 69.61 3.24 M69.61 3.24 C69.61 3.24, 69.61 3.24, 69.61 3.24" stroke="#000000" stroke-width="1" fill="none"></path></g></g><g stroke-linecap="round"><g transform="translate(172.34722461833036 130.0127799798305) rotate(0 -34.11583204590802 -2.151767527142269)"><path d="M-1.17 -0.84 C-12.68 -1.85, -57.02 -4.95, -68.27 -5.64 M0.41 1.33 C-11.22 0.4, -57.06 -3.78, -68.65 -4.63" stroke="#000000" stroke-width="1" fill="none"></path></g><g transform="translate(172.34722461833036 130.0127799798305) rotate(0 -34.11583204590802 -2.151767527142269)"><path d="M-70.15 -5.42 L-53.3 -9.25 L-56.05 2.63 L-66.84 -5.94" stroke="none" stroke-width="0" fill="#000000" fill-rule="evenodd"></path><path d="M-69.7 -3.27 C-64.79 -5.52, -58.78 -7.53, -54.7 -8.52 M-69.28 -4.1 C-64.68 -6.16, -59.99 -7.31, -54.69 -9.74 M-53.76 -10.59 C-54.89 -8.03, -53.86 -5.58, -54.4 1.62 M-54.72 -9.57 C-55.51 -5.83, -55.37 -1.02, -55.83 3.3 M-56.94 3.13 C-57.16 2.29, -61.99 -1.23, -69.75 -5.5 M-55.26 2.79 C-58.12 0.58, -61.77 -0.5, -68.91 -4.63 M-68.65 -4.63 C-68.65 -4.63, -68.65 -4.63, -68.65 -4.63 M-68.65 -4.63 C-68.65 -4.63, -68.65 -4.63, -68.65 -4.63" stroke="#000000" stroke-width="1" fill="none"></path></g></g><g stroke-linecap="round"><g transform="translate(129.467372906942 199.57639801780516) rotate(0 24.393323662416663 -16.729425545754097)"><path d="M-0.25 -0.03 C8.07 -5.51, 40.65 -26.22, 49.04 -31.8 M1.82 -1.09 C10.06 -6.39, 40.09 -28.19, 48.08 -33.43" stroke="#000000" stroke-width="1" fill="none"></path></g><g transform="translate(129.467372906942 199.57639801780516) rotate(0 24.393323662416663 -16.729425545754097)"><path d="M49.9 -35.09 L41.61 -21.32 L34.14 -30.15 L49.28 -34.32" stroke="none" stroke-width="0" fill="#000000" fill-rule="evenodd"></path><path d="M48.05 -33.44 C47.67 -29.28, 43.89 -26.35, 39.15 -19.56 M48.77 -32.86 C45.36 -29.86, 43.95 -26.9, 40.58 -20.48 M40 -20.16 C39.1 -22.56, 35.53 -27.31, 33.11 -30.1 M40.63 -20.07 C37.75 -23.93, 36.14 -27.23, 33.69 -31.07 M32.28 -30.37 C38.6 -31.96, 41.82 -33.27, 47.25 -34.22 M34.02 -31.1 C37.6 -32.05, 40.55 -32.34, 47.9 -33.98 M48.08 -33.43 C48.08 -33.43, 48.08 -33.43, 48.08 -33.43 M48.08 -33.43 C48.08 -33.43, 48.08 -33.43, 48.08 -33.43" stroke="#000000" stroke-width="1" fill="none"></path></g></g><g stroke-linecap="round"><g transform="translate(193.73949388326906 174.7253956202406) rotate(0 -26.29665708547367 16.90097673924211)"><path d="M0.76 -0.98 C-7.92 4.79, -43.4 28.74, -52.24 34.78 M-0.3 1.13 C-9.15 6.49, -44.53 27.44, -53.35 32.8" stroke="#000000" stroke-width="1" fill="none"></path></g><g transform="translate(193.73949388326906 174.7253956202406) rotate(0 -26.29665708547367 16.90097673924211)"><path d="M-52.89 34.68 L-43.89 20.9 L-36.97 29.89 L-54.77 33.81" stroke="none" stroke-width="0" fill="#000000" fill-rule="evenodd"></path><path d="M-54.57 32.41 C-50.62 28.72, -47.62 25.19, -44.61 19.21 M-53.1 32.68 C-51.28 28.7, -48.67 24.97, -45.18 19.92 M-44.42 19.61 C-43.96 23.74, -41.02 26.35, -39.22 31.33 M-45.49 20.29 C-43.67 23.25, -42.34 25.94, -37.89 31.37 M-38.79 32.6 C-42.11 32.58, -47.85 33.56, -51.99 31.55 M-38.15 31.7 C-44.06 32.36, -48.77 32.6, -52.94 32.46 M-53.35 32.8 C-53.35 32.8, -53.35 32.8, -53.35 32.8 M-53.35 32.8 C-53.35 32.8, -53.35 32.8, -53.35 32.8" stroke="#000000" stroke-width="1" fill="none"></path></g></g><g stroke-linecap="round"><g transform="translate(275.0805011606695 172.06922802230739) rotate(0 17.812397753294363 30.472741844427304)"><path d="M-0.28 1.08 C5.68 11.2, 29.96 50.41, 35.91 60.35 M1.77 0.6 C7.66 10.41, 30.02 48.86, 35.56 58.58" stroke="#000000" stroke-width="1" fill="none"></path></g><g transform="translate(275.0805011606695 172.06922802230739) rotate(0 17.812397753294363 30.472741844427304)"><path d="M36.27 59.42 L22.31 48.66 L32.86 45.33 L34.83 56.65" stroke="none" stroke-width="0" fill="#000000" fill-rule="evenodd"></path><path d="M36.9 60.01 C32.61 56.67, 29.23 54.56, 22.03 50.78 M36.01 58.25 C32.85 56.65, 29.38 54.61, 22.94 50.26 M22.27 50.34 C27.55 49.17, 30.31 45.87, 34.35 44.46 M23.53 49.57 C26 48.19, 29.53 46.66, 33.63 43.79 M35.36 42.62 C33.79 50.28, 34.39 56.55, 35.96 58.67 M34.23 43.82 C34.72 47.28, 34.81 50.12, 35.51 57.93 M35.56 58.58 C35.56 58.58, 35.56 58.58, 35.56 58.58 M35.56 58.58 C35.56 58.58, 35.56 58.58, 35.56 58.58" stroke="#000000" stroke-width="1" fill="none"></path></g></g><g stroke-linecap="round"><g transform="translate(301.72797773098546 233.25609430867962) rotate(0 -15.684642753612138 -27.340801078946015)"><path d="M0.1 -0.25 C-5.16 -9.31, -25.39 -45.55, -30.77 -54.43 M-1.31 -1.43 C-6.75 -10.34, -26.72 -44.83, -31.46 -53.29" stroke="#000000" stroke-width="1" fill="none"></path></g><g transform="translate(301.72797773098546 233.25609430867962) rotate(0 -15.684642753612138 -27.340801078946015)"><path d="M-33.38 -52.96 L-17.3 -44.13 L-30.52 -39.97 L-30.68 -52.61" stroke="none" stroke-width="0" fill="#000000" fill-rule="evenodd"></path><path d="M-31.78 -52.69 C-27.96 -51.32, -22.4 -47.46, -18.31 -46.12 M-31.27 -52.74 C-27.93 -51.09, -23.08 -48.25, -18.64 -44.44 M-19.09 -44.69 C-22.33 -42.39, -25.14 -40.78, -29.86 -38.43 M-19.3 -44.74 C-21.79 -43.7, -24.01 -41.68, -29.98 -38.54 M-31.02 -38.73 C-30.28 -42.55, -30.27 -45.75, -30.22 -51.86 M-30.58 -38.84 C-31.13 -41.67, -31.21 -47, -31.47 -53.86 M-31.46 -53.29 C-31.46 -53.29, -31.46 -53.29, -31.46 -53.29 M-31.46 -53.29 C-31.46 -53.29, -31.46 -53.29, -31.46 -53.29" stroke="#000000" stroke-width="1" fill="none"></path></g></g><g transform="translate(351.4873659924935 191.33397744121135) rotate(0 -58.69465803534581 13.700889121366743)" stroke="none"><path fill="#c92a2a" d="M -41.33,1.65 Q -41.33,1.65 -42.48,2.63 -43.64,3.62 -45.13,4.69 -46.61,5.75 -48.47,6.90 -50.33,8.05 -52.28,9.37 -54.23,10.68 -56.06,11.91 -57.89,13.14 -58.99,14.18 -60.08,15.21 -60.93,16.42 -61.77,17.63 -62.05,18.78 -62.33,19.92 -62.72,21.09 -63.11,22.26 -64.15,23.39 -65.18,24.51 -66.11,25.15 -67.03,25.79 -68.19,26.39 -69.34,26.98 -70.84,28.05 -72.33,29.12 -72.68,29.43 -73.03,29.75 -73.46,29.94 -73.89,30.13 -74.36,30.17 -74.83,30.21 -75.28,30.09 -75.74,29.98 -76.14,29.73 -76.54,29.48 -76.83,29.11 -77.13,28.75 -77.29,28.31 -77.46,27.87 -77.47,27.40 -77.49,26.93 -77.35,26.48 -77.21,26.02 -76.94,25.64 -76.67,25.26 -76.29,24.98 -75.90,24.71 -75.46,24.57 -75.01,24.43 -74.54,24.44 -74.07,24.45 -73.62,24.61 -73.18,24.77 -72.81,25.06 -72.45,25.36 -72.19,25.75 -71.94,26.15 -71.82,26.60 -71.70,27.06 -71.74,27.53 -71.78,28.00 -71.96,28.43 -72.15,28.86 -72.46,29.21 -72.77,29.57 -73.18,29.80 -73.59,30.03 -74.05,30.12 -74.51,30.21 -74.98,30.15 -75.44,30.09 -75.87,29.88 -76.29,29.67 -76.62,29.34 -76.96,29.01 -77.17,28.59 -77.38,28.17 -77.44,27.70 -77.51,27.24 -77.42,26.78 -77.34,26.31 -77.11,25.90 -76.88,25.49 -76.88,25.49 -76.88,25.49 -74.39,23.69 -71.91,21.89 -70.34,21.05 -68.77,20.21 -67.88,19.31 -66.99,18.40 -66.44,17.27 -65.90,16.13 -64.97,15.05 -64.05,13.97 -63.21,13.25 -62.38,12.53 -61.08,11.51 -59.79,10.48 -58.04,9.16 -56.29,7.85 -54.40,6.37 -52.51,4.90 -50.83,3.61 -49.14,2.31 -47.79,1.29 -46.44,0.26 -45.26,-0.69 -44.08,-1.65 -43.86,-1.79 -43.65,-1.93 -43.40,-2.01 -43.16,-2.10 -42.90,-2.12 -42.64,-2.15 -42.38,-2.11 -42.13,-2.07 -41.89,-1.97 -41.65,-1.87 -41.44,-1.71 -41.23,-1.56 -41.06,-1.36 -40.90,-1.16 -40.79,-0.93 -40.67,-0.70 -40.62,-0.44 -40.56,-0.19 -40.57,0.06 -40.58,0.32 -40.65,0.57 -40.72,0.82 -40.85,1.04 -40.97,1.27 -41.15,1.46 -41.33,1.65 -41.33,1.65 L -41.33,1.65 Z"></path></g><g transform="translate(278.8379857517936 188.79668542001104) rotate(0 23.442253128709098 14.311330588738343)" stroke="none"><path fill="#c92a2a" d="M 0.86,-1.63 Q 0.86,-1.63 2.68,-0.61 4.50,0.41 7.37,1.90 10.24,3.38 13.68,5.12 17.12,6.87 20.20,8.58 23.27,10.30 25.89,12.09 28.50,13.88 30.50,15.49 32.50,17.09 33.96,18.27 35.43,19.45 36.71,20.43 37.99,21.42 38.96,21.99 39.93,22.55 40.93,23.09 41.92,23.62 42.97,24.15 44.02,24.68 45.81,25.58 47.59,26.48 47.88,26.70 48.16,26.93 48.35,27.22 48.55,27.52 48.64,27.87 48.73,28.22 48.71,28.58 48.68,28.93 48.54,29.26 48.41,29.60 48.17,29.87 47.93,30.13 47.62,30.31 47.31,30.49 46.96,30.57 46.61,30.64 46.25,30.59 45.90,30.55 45.58,30.39 45.25,30.24 45.00,29.99 44.74,29.73 44.58,29.42 44.41,29.10 44.36,28.74 44.31,28.39 44.37,28.03 44.44,27.68 44.61,27.37 44.78,27.05 45.05,26.81 45.31,26.57 45.64,26.42 45.97,26.28 46.32,26.25 46.68,26.21 47.03,26.30 47.38,26.38 47.68,26.57 47.99,26.76 48.21,27.03 48.44,27.31 48.57,27.65 48.70,27.98 48.71,28.34 48.72,28.70 48.62,29.04 48.52,29.39 48.31,29.68 48.11,29.97 47.82,30.18 47.53,30.40 47.19,30.51 46.85,30.61 46.49,30.61 46.13,30.60 45.79,30.48 45.46,30.36 45.46,30.36 45.46,30.36 43.67,29.37 41.88,28.38 40.83,27.69 39.77,27.01 38.78,26.28 37.79,25.55 36.83,24.74 35.88,23.93 34.69,22.83 33.50,21.73 32.13,20.50 30.76,19.28 28.83,17.76 26.89,16.24 24.38,14.56 21.86,12.89 18.81,11.25 15.77,9.62 12.28,7.95 8.80,6.28 5.84,4.87 2.89,3.47 1.01,2.55 -0.86,1.63 -1.04,1.51 -1.23,1.38 -1.37,1.21 -1.52,1.05 -1.62,0.85 -1.73,0.65 -1.78,0.43 -1.83,0.22 -1.83,-0.00 -1.83,-0.22 -1.78,-0.44 -1.73,-0.65 -1.62,-0.85 -1.52,-1.05 -1.37,-1.22 -1.22,-1.38 -1.04,-1.51 -0.85,-1.64 -0.65,-1.72 -0.44,-1.79 -0.21,-1.82 0.00,-1.85 0.22,-1.82 0.44,-1.79 0.65,-1.71 0.86,-1.63 0.86,-1.63 L 0.86,-1.63 Z"></path></g></svg>