<svg version="1.1" xmlns="http://www.w3.org/2000/svg" viewBox="0 0 670.8822365297772 477.3141339025868" width="1341.7644730595543" height="954.6282678051736">
  <!-- svg-source:excalidraw -->
  
  <defs>
    <style>
      @font-face {
        font-family: "Virgil";
        src: url("https://excalidraw.com/Virgil.woff2");
      }
      @font-face {
        font-family: "Cascadia";
        src: url("https://excalidraw.com/Cascadia.woff2");
      }
    </style>
  </defs>
  <rect x="0" y="0" width="670.8822365297772" height="477.3141339025868" fill="#FFF"></rect><g stroke-linecap="round" transform="translate(181.24042568964165 387.5069224783122) rotate(0 47.33489970745802 29.383967087022484)"><path d="M0 0 C28.38 0, 56.76 0, 94.67 0 M0 0 C25.45 0, 50.9 0, 94.67 0 M94.67 0 C94.67 14.06, 94.67 28.12, 94.67 58.77 M94.67 0 C94.67 20.92, 94.67 41.85, 94.67 58.77 M94.67 58.77 C57.89 58.77, 21.12 58.77, 0 58.77 M94.67 58.77 C66.06 58.77, 37.45 58.77, 0 58.77 M0 58.77 C0 41.94, 0 25.11, 0 0 M0 58.77 C0 40.46, 0 22.16, 0 0" stroke="#000000" stroke-width="2" fill="none"></path></g><g stroke-linecap="round" transform="translate(184.8733525294927 392.2083572122361) rotate(0 43.70197286760802 25.216786300135652)"><path d="M0 0 L87.4 0 L87.4 50.43 L0 50.43" stroke="none" stroke-width="0" fill="#000000"></path><path d="M0 0 C19.43 0, 38.86 0, 87.4 0 M0 0 C34.35 0, 68.7 0, 87.4 0 M87.4 0 C87.4 14.49, 87.4 28.98, 87.4 50.43 M87.4 0 C87.4 15.54, 87.4 31.08, 87.4 50.43 M87.4 50.43 C69.26 50.43, 51.12 50.43, 0 50.43 M87.4 50.43 C52.46 50.43, 17.51 50.43, 0 50.43 M0 50.43 C0 37.24, 0 24.04, 0 0 M0 50.43 C0 30.71, 0 10.99, 0 0" stroke="#000000" stroke-width="2" fill="none"></path></g><g stroke-linecap="round"><g transform="translate(177.4165314814898 446.4885582311719) rotate(0 51.277011810274075 0)"><path d="M0 0 C27.65 0, 55.3 0, 102.55 0 M0 0 C30.48 0, 60.97 0, 102.55 0" stroke="#000000" stroke-width="2" fill="none"></path></g></g><g stroke-linecap="round"><g transform="translate(180.1977716583097 451.06934833333656) rotate(0 48.88991970649283 0)"><path d="M0 0 C36.64 0, 73.27 0, 97.78 0 M0 0 C31.23 0, 62.46 0, 97.78 0" stroke="#000000" stroke-width="2" fill="none"></path></g></g><g stroke-linecap="round"><g transform="translate(278.02153356600576 451.2199397437693) rotate(0 1.0413945062614403 -2.310114066987012)" fill-rule="evenodd"><path d="" stroke="none" stroke-width="0" fill="#000000" fill-rule="evenodd"></path><path d="M0 0 C0.31 -0.28, 1.52 -0.9, 1.87 -1.67 C2.21 -2.44, 2.03 -4.13, 2.06 -4.62 M0 0 C0.31 -0.28, 1.52 -0.9, 1.87 -1.67 C2.21 -2.44, 2.03 -4.13, 2.06 -4.62" stroke="#000000" stroke-width="2" fill="none"></path></g></g><g stroke-linecap="round"><g transform="translate(180.1120182162586 451.2199397437691) rotate(0 -1.1796327150571813 -2.2609627038596045)" fill-rule="evenodd"><path d="" stroke="none" stroke-width="0" fill="#000000" fill-rule="evenodd"></path><path d="M0 0 C-0.3 -0.15, -1.4 -0.15, -1.79 -0.9 C-2.19 -1.66, -2.26 -3.92, -2.36 -4.52 M0 0 C-0.3 -0.15, -1.4 -0.15, -1.79 -0.9 C-2.19 -1.66, -2.26 -3.92, -2.36 -4.52" stroke="#000000" stroke-width="2" fill="none"></path></g></g><g stroke-linecap="round" transform="translate(221.3591105599533 446.5432857691591) rotate(0 7.021623303911838 0.32407492171898866)"><path d="M0 0 L14.04 0 L14.04 0.65 L0 0.65" stroke="none" stroke-width="0" fill="#000000"></path><path d="M0 0 C4.95 0, 9.89 0, 14.04 0 M0 0 C4.69 0, 9.38 0, 14.04 0 M14.04 0 C14.04 0.17, 14.04 0.34, 14.04 0.65 M14.04 0 C14.04 0.25, 14.04 0.5, 14.04 0.65 M14.04 0.65 C10.74 0.65, 7.44 0.65, 0 0.65 M14.04 0.65 C9.24 0.65, 4.43 0.65, 0 0.65 M0 0.65 C0 0.42, 0 0.19, 0 0 M0 0.65 C0 0.39, 0 0.14, 0 0" stroke="#000000" stroke-width="2" fill="none"></path></g><g transform="translate(212.20866934691009 453.61597456289036) rotate(0 27.825478682109207 5.351053592713299)"><text x="0" y="6.70210718542663" font-family="Virgil, Segoe UI Emoji" font-size="8.5616857483413px" fill="#000000" text-anchor="start" style="white-space: pre;" direction="ltr">MacBookWork</text></g><g stroke-linecap="round" transform="translate(477.3386573709557 36.460397108694764) rotate(0 47.33489970745802 29.383967087022455)"><path d="M0 0 C29.99 0, 59.97 0, 94.67 0 M0 0 C26.71 0, 53.42 0, 94.67 0 M94.67 0 C94.67 19.77, 94.67 39.53, 94.67 58.77 M94.67 0 C94.67 12.88, 94.67 25.76, 94.67 58.77 M94.67 58.77 C72.54 58.77, 50.41 58.77, 0 58.77 M94.67 58.77 C68.35 58.77, 42.02 58.77, 0 58.77 M0 58.77 C0 46.19, 0 33.61, 0 0 M0 58.77 C0 39.35, 0 19.93, 0 0" stroke="#000000" stroke-width="2" fill="none"></path></g><g stroke-linecap="round" transform="translate(480.97158421080684 41.16183184261874) rotate(0 43.70197286760799 25.216786300135666)"><path d="M0 0 L87.4 0 L87.4 50.43 L0 50.43" stroke="none" stroke-width="0" fill="#000000"></path><path d="M0 0 C25.37 0, 50.74 0, 87.4 0 M0 0 C24.73 0, 49.46 0, 87.4 0 M87.4 0 C87.4 17.5, 87.4 34.99, 87.4 50.43 M87.4 0 C87.4 10.92, 87.4 21.84, 87.4 50.43 M87.4 50.43 C60.15 50.43, 32.9 50.43, 0 50.43 M87.4 50.43 C63.12 50.43, 38.84 50.43, 0 50.43 M0 50.43 C0 33.6, 0 16.78, 0 0 M0 50.43 C0 34.82, 0 19.2, 0 0" stroke="#000000" stroke-width="2" fill="none"></path></g><g stroke-linecap="round"><g transform="translate(473.51476316280383 95.44203286155428) rotate(0 51.277011810274075 0)"><path d="M0 0 C27.96 0, 55.92 0, 102.55 0 M0 0 C29.48 0, 58.96 0, 102.55 0" stroke="#000000" stroke-width="2" fill="none"></path></g></g><g stroke-linecap="round"><g transform="translate(476.2960033396234 100.02282296371962) rotate(0 48.88991970649283 0)"><path d="M0 0 C23.26 0, 46.52 0, 97.78 0 M0 0 C24.45 0, 48.9 0, 97.78 0" stroke="#000000" stroke-width="2" fill="none"></path></g></g><g stroke-linecap="round"><g transform="translate(574.1197652473195 100.17341437415158) rotate(0 1.0413945062614403 -2.310114066987012)" fill-rule="evenodd"><path d="" stroke="none" stroke-width="0" fill="#000000" fill-rule="evenodd"></path><path d="M0 0 C0.31 -0.28, 1.52 -0.9, 1.87 -1.67 C2.21 -2.44, 2.03 -4.13, 2.06 -4.62 M0 0 C0.31 -0.28, 1.52 -0.9, 1.87 -1.67 C2.21 -2.44, 2.03 -4.13, 2.06 -4.62" stroke="#000000" stroke-width="2" fill="none"></path></g></g><g stroke-linecap="round"><g transform="translate(476.2102498975732 100.17341437415146) rotate(0 -1.1796327150572097 -2.2609627038596187)" fill-rule="evenodd"><path d="" stroke="none" stroke-width="0" fill="#000000" fill-rule="evenodd"></path><path d="M0 0 C-0.3 -0.15, -1.4 -0.15, -1.79 -0.9 C-2.19 -1.66, -2.26 -3.92, -2.36 -4.52 M0 0 C-0.3 -0.15, -1.4 -0.15, -1.79 -0.9 C-2.19 -1.66, -2.26 -3.92, -2.36 -4.52" stroke="#000000" stroke-width="2" fill="none"></path></g></g><g stroke-linecap="round" transform="translate(517.4573422412666 95.49676039954196) rotate(0 7.021623303911838 0.3240749217190029)"><path d="M0 0 L14.04 0 L14.04 0.65 L0 0.65" stroke="none" stroke-width="0" fill="#000000"></path><path d="M0 0 C5.48 0, 10.96 0, 14.04 0 M0 0 C5.47 0, 10.94 0, 14.04 0 M14.04 0 C14.04 0.26, 14.04 0.51, 14.04 0.65 M14.04 0 C14.04 0.14, 14.04 0.28, 14.04 0.65 M14.04 0.65 C8.56 0.65, 3.07 0.65, 0 0.65 M14.04 0.65 C11.2 0.65, 8.36 0.65, 0 0.65 M0 0.65 C0 0.4, 0 0.15, 0 0 M0 0.65 C0 0.51, 0 0.37, 0 0" stroke="#000000" stroke-width="2" fill="none"></path></g><g transform="translate(508.24591844809623 104.05414447562387) rotate(0 17.765497927808212 5.351053592713313)"><text x="0" y="6.70210718542663" font-family="Virgil, Segoe UI Emoji" font-size="8.561685748341286px" fill="#000000" text-anchor="start" style="white-space: pre;" direction="ltr">Mac Mini</text></g><g stroke-linecap="round" transform="translate(162.39441738886046 29.782403286401262) rotate(0 47.33489970745802 29.383967087022455)"><path d="M0 0 C34.61 0, 69.23 0, 94.67 0 M0 0 C36.37 0, 72.74 0, 94.67 0 M94.67 0 C94.67 19.31, 94.67 38.62, 94.67 58.77 M94.67 0 C94.67 12.93, 94.67 25.85, 94.67 58.77 M94.67 58.77 C68.61 58.77, 42.55 58.77, 0 58.77 M94.67 58.77 C71.66 58.77, 48.64 58.77, 0 58.77 M0 58.77 C0 44.67, 0 30.57, 0 0 M0 58.77 C0 46.89, 0 35.02, 0 0" stroke="#000000" stroke-width="2" fill="none"></path></g><g stroke-linecap="round" transform="translate(166.02734422871163 34.48383802032495) rotate(0 43.70197286760802 25.216786300135666)"><path d="M0 0 L87.4 0 L87.4 50.43 L0 50.43" stroke="none" stroke-width="0" fill="#000000"></path><path d="M0 0 C31.78 0, 63.56 0, 87.4 0 M0 0 C19.65 0, 39.31 0, 87.4 0 M87.4 0 C87.4 18.41, 87.4 36.83, 87.4 50.43 M87.4 0 C87.4 19.37, 87.4 38.73, 87.4 50.43 M87.4 50.43 C67.87 50.43, 48.33 50.43, 0 50.43 M87.4 50.43 C68.47 50.43, 49.54 50.43, 0 50.43 M0 50.43 C0 36.46, 0 22.49, 0 0 M0 50.43 C0 31.79, 0 13.14, 0 0" stroke="#000000" stroke-width="2" fill="none"></path></g><g stroke-linecap="round"><g transform="translate(158.57052318070873 88.7640390392609) rotate(0 51.27701181027405 0)"><path d="M0 0 C26.01 0, 52.03 0, 102.55 0 M0 0 C22.3 0, 44.59 0, 102.55 0" stroke="#000000" stroke-width="2" fill="none"></path></g></g><g stroke-linecap="round"><g transform="translate(161.35176335752817 93.34482914142578) rotate(0 48.889919706492805 0)"><path d="M0 0 C27.59 0, 55.18 0, 97.78 0 M0 0 C32.89 0, 65.77 0, 97.78 0" stroke="#000000" stroke-width="2" fill="none"></path></g></g><g stroke-linecap="round"><g transform="translate(259.1755252652242 93.4954205518579) rotate(0 1.0413945062614403 -2.310114066987012)" fill-rule="evenodd"><path d="" stroke="none" stroke-width="0" fill="#000000" fill-rule="evenodd"></path><path d="M0 0 C0.31 -0.28, 1.52 -0.9, 1.87 -1.67 C2.21 -2.44, 2.03 -4.13, 2.06 -4.62 M0 0 C0.31 -0.28, 1.52 -0.9, 1.87 -1.67 C2.21 -2.44, 2.03 -4.13, 2.06 -4.62" stroke="#000000" stroke-width="2" fill="none"></path></g></g><g stroke-linecap="round"><g transform="translate(161.26600991547798 93.49542055185842) rotate(0 -1.1796327150571813 -2.2609627038596187)" fill-rule="evenodd"><path d="" stroke="none" stroke-width="0" fill="#000000" fill-rule="evenodd"></path><path d="M0 0 C-0.3 -0.15, -1.4 -0.15, -1.79 -0.9 C-2.19 -1.66, -2.26 -3.92, -2.36 -4.52 M0 0 C-0.3 -0.15, -1.4 -0.15, -1.79 -0.9 C-2.19 -1.66, -2.26 -3.92, -2.36 -4.52" stroke="#000000" stroke-width="2" fill="none"></path></g></g><g stroke-linecap="round" transform="translate(202.51310225917155 88.81876657724845) rotate(0 7.021623303911838 0.3240749217190029)"><path d="M0 0 L14.04 0 L14.04 0.65 L0 0.65" stroke="none" stroke-width="0" fill="#000000"></path><path d="M0 0 C3.51 0, 7.02 0, 14.04 0 M0 0 C2.87 0, 5.74 0, 14.04 0 M14.04 0 C14.04 0.16, 14.04 0.31, 14.04 0.65 M14.04 0 C14.04 0.15, 14.04 0.29, 14.04 0.65 M14.04 0.65 C9.78 0.65, 5.53 0.65, 0 0.65 M14.04 0.65 C10.58 0.65, 7.11 0.65, 0 0.65 M0 0.65 C0 0.48, 0 0.31, 0 0 M0 0.65 C0 0.5, 0 0.34, 0 0" stroke="#000000" stroke-width="2" fill="none"></path></g><g transform="translate(184.88657187124932 96.98475034659813) rotate(0 27.18335225098363 5.351053592713313)"><text x="0" y="6.70210718542663" font-family="Virgil, Segoe UI Emoji" font-size="8.561685748341297px" fill="#000000" text-anchor="start" style="white-space: pre;" direction="ltr">MacbookHome</text></g><g stroke-linecap="round" transform="translate(10 202.34604019540592) rotate(0 24.65379904004776 46.73384982866196)"><path d="M0 0 C10.99 0, 21.98 0, 49.31 0 M0 0 C18.58 0, 37.16 0, 49.31 0 M49.31 0 C49.31 32.36, 49.31 64.71, 49.31 93.47 M49.31 0 C49.31 22.34, 49.31 44.69, 49.31 93.47 M49.31 93.47 C31.21 93.47, 13.11 93.47, 0 93.47 M49.31 93.47 C32.35 93.47, 15.4 93.47, 0 93.47 M0 93.47 C0 58.62, 0 23.77, 0 0 M0 93.47 C0 60.61, 0 27.75, 0 0" stroke="#000000" stroke-width="2" fill="none"></path></g><g stroke-linecap="round" transform="translate(12.267179900154645 206.95169496112925) rotate(0 22.336712664103402 40.97678137150791)"><path d="M0 0 L44.67 0 L44.67 81.95 L0 81.95" stroke="none" stroke-width="0" fill="#000000"></path><path d="M0 0 C9.28 0, 18.55 0, 44.67 0 M0 0 C15.88 0, 31.77 0, 44.67 0 M44.67 0 C44.67 26.41, 44.67 52.81, 44.67 81.95 M44.67 0 C44.67 25.95, 44.67 51.91, 44.67 81.95 M44.67 81.95 C32.99 81.95, 21.3 81.95, 0 81.95 M44.67 81.95 C29.03 81.95, 13.39 81.95, 0 81.95 M0 81.95 C0 61.9, 0 41.85, 0 0 M0 81.95 C0 56.66, 0 31.36, 0 0" stroke="#000000" stroke-width="1" fill="none"></path></g><g stroke-linecap="round" transform="translate(26.526172982889477 291.0726246527208) rotate(0 7.992165622872605 1.3546043428597727)"><path d="M0.68 0 L15.31 0 L15.98 2.03 L15.31 2.71 L0.68 2.71 L0 2.03 L0.68 0" stroke="none" stroke-width="0" fill="#000000"></path><path d="M0.68 0 M0.68 0 C5.27 0, 9.85 0, 15.31 0 M0.68 0 C5.39 0, 10.11 0, 15.31 0 M15.31 0 C15.76 0, 15.98 0.23, 15.98 0.68 M15.31 0 C15.76 0, 15.98 0.23, 15.98 0.68 M15.98 0.68 C15.98 1.03, 15.98 1.39, 15.98 2.03 M15.98 0.68 C15.98 1.03, 15.98 1.39, 15.98 2.03 M15.98 2.03 C15.98 2.48, 15.76 2.71, 15.31 2.71 M15.98 2.03 C15.98 2.48, 15.76 2.71, 15.31 2.71 M15.31 2.71 C10.46 2.71, 5.62 2.71, 0.68 2.71 M15.31 2.71 C11.73 2.71, 8.15 2.71, 0.68 2.71 M0.68 2.71 C0.23 2.71, 0 2.48, 0 2.03 M0.68 2.71 C0.23 2.71, 0 2.48, 0 2.03 M0 2.03 C0 1.71, 0 1.39, 0 0.68 M0 2.03 C0 1.55, 0 1.06, 0 0.68 M0 0.68 C0 0.23, 0.23 0, 0.68 0 M0 0.68 C0 0.23, 0.23 0, 0.68 0" stroke="#000000" stroke-width="1" fill="none"></path></g><g stroke-linecap="round" transform="translate(26.143200741255953 204.15241972295445) rotate(0 7.7889749714436505 0.6095719542869062)"><path d="M0.3 0 L15.27 0 L15.58 0.91 L0.3 1.22 L0.3 0" stroke="none" stroke-width="0" fill="#000000"></path><path d="M0.3 0 M0.3 0 C6.09 0, 11.87 0, 15.27 0 M0.3 0 C5.91 0, 11.52 0, 15.27 0 M15.27 0 C15.48 0, 15.58 0.1, 15.58 0.3 M15.27 0 C15.48 0, 15.58 0.1, 15.58 0.3 M15.58 0.3 C15.58 0.44, 15.58 0.57, 15.58 0.91 M15.58 0.3 C15.58 0.46, 15.58 0.62, 15.58 0.91 M15.58 0.91 C15.58 1.12, 15.48 1.22, 15.27 1.22 M15.58 0.91 C15.58 1.12, 15.48 1.22, 15.27 1.22 M15.27 1.22 C11.72 1.22, 8.17 1.22, 0.3 1.22 M15.27 1.22 C10.13 1.22, 4.98 1.22, 0.3 1.22 M0.3 1.22 C0.1 1.22, 0 1.12, 0 0.91 M0.3 1.22 C0.1 1.22, 0 1.12, 0 0.91 M0 0.91 C0 0.72, 0 0.52, 0 0.3 M0 0.91 C0 0.7, 0 0.48, 0 0.3 M0 0.3 C0 0.1, 0.1 0, 0.3 0 M0 0.3 C0 0.1, 0.1 0, 0.3 0" stroke="#000000" stroke-width="1" fill="none"></path></g><g transform="translate(30.000000000000057 302.3460401954059) rotate(0 12.84252862251195 5.351053592713328)"><text x="0" y="6.70210718542663" font-family="Virgil, Segoe UI Emoji" font-size="8.561685748341297px" fill="#000000" text-anchor="start" style="white-space: pre;" direction="ltr">iPhone</text></g><g stroke-linecap="round"><g transform="translate(177.41546739278635 282.3684862911735) rotate(0 50.659735563196136 0.18962321737606658)"><path d="M-0.87 0.71 C15.78 0.5, 82.99 -0.54, 99.79 -0.48 M0.88 0.04 C17.93 -0.07, 85.85 0.97, 102.19 0.86" stroke="black" stroke-width="4" fill="none"></path></g></g><g stroke-linecap="round"><g transform="translate(180.3216765965483 281.4053071167613) rotate(0 -0.7332325255121361 -15.832894131051205)"><path d="M0.71 -0.59 C-0.44 -0.78, -4.88 -1.37, -6.11 -2 C-7.35 -2.62, -6.15 -3.31, -6.72 -4.34 C-7.3 -5.36, -9.35 -5.79, -9.56 -8.16 C-9.78 -10.53, -8.36 -15.98, -8.02 -18.57 C-7.68 -21.16, -8.27 -21.94, -7.52 -23.69 C-6.78 -25.45, -5.26 -27.58, -3.53 -29.09 C-1.8 -30.59, 1.21 -32.1, 2.84 -32.73 C4.48 -33.36, 5.77 -33.06, 6.29 -32.85 M-0.38 1.71 C-1.79 1.76, -6.18 0.12, -7.27 -0.71 C-8.35 -1.53, -6.53 -2.17, -6.87 -3.23 C-7.22 -4.28, -8.99 -4.5, -9.34 -7.02 C-9.68 -9.54, -9.47 -15.94, -8.95 -18.36 C-8.44 -20.78, -7.17 -20.07, -6.23 -21.55 C-5.3 -23.02, -5.21 -25.26, -3.33 -27.21 C-1.45 -29.17, 3.14 -32.68, 5.05 -33.29 C6.96 -33.9, 7.88 -31.18, 8.12 -30.88" stroke="black" stroke-width="4" fill="none"></path></g></g><g stroke-linecap="round"><g transform="translate(184.40166686691464 248.42068000094918) rotate(0 19.70491748809755 -17.345910671776636)"><path d="M-0.59 -0.39 C-1.09 -2.27, -3.26 -7.61, -3.82 -10.58 C-4.38 -13.55, -4.28 -16.47, -3.96 -18.21 C-3.64 -19.96, -3.03 -19.34, -1.9 -21.06 C-0.77 -22.78, 1.16 -26.64, 2.82 -28.55 C4.49 -30.47, 6.25 -31.59, 8.09 -32.53 C9.94 -33.46, 11.14 -33.94, 13.9 -34.15 C16.66 -34.35, 21.15 -34.14, 24.63 -33.73 C28.11 -33.33, 32.38 -32.67, 34.78 -31.7 C37.18 -30.73, 37.37 -30.15, 39.04 -27.93 C40.71 -25.7, 43.89 -20.15, 44.81 -18.36 M1.3 -1.63 C0.68 -3.88, -3.98 -9.54, -5.01 -12.09 C-6.05 -14.64, -5.51 -15.08, -4.94 -16.92 C-4.37 -18.75, -3.24 -21.18, -1.61 -23.08 C0.02 -24.97, 3.05 -27.07, 4.82 -28.29 C6.6 -29.5, 7.48 -29.69, 9.03 -30.35 C10.58 -31.01, 11.71 -31.61, 14.1 -32.26 C16.5 -32.91, 19.66 -34.66, 23.39 -34.24 C27.11 -33.82, 34.26 -30.82, 36.46 -29.74 C38.66 -28.66, 35.15 -29.74, 36.58 -27.76 C38 -25.79, 43.35 -19.59, 45.01 -17.88" stroke="black" stroke-width="4" fill="none"></path></g></g><g stroke-linecap="round"><g transform="translate(230.38037162985677 229.6586445204527) rotate(0 19.066315481270948 5.188948516919083)"><path d="M-0.39 -0.47 C0.63 -1.04, 4.47 -3.27, 6.78 -4.02 C9.09 -4.77, 9.42 -5.04, 13.49 -4.98 C17.57 -4.91, 27.46 -4.48, 31.23 -3.62 C35.01 -2.77, 35.07 -2.66, 36.12 0.14 C37.17 2.95, 37.31 10.94, 37.55 13.19 M1.61 -1.76 C2.51 -2.11, 4.6 -2.38, 6.45 -2.69 C8.3 -3, 8.45 -3.62, 12.71 -3.62 C16.97 -3.62, 28.38 -3.32, 32.02 -2.7 C35.65 -2.09, 33.44 -2.95, 34.53 0.06 C35.61 3.07, 37.97 12.76, 38.52 15.37" stroke="black" stroke-width="4" fill="none"></path></g></g><g stroke-linecap="round"><g transform="translate(276.2601534201358 281.55095848996524) rotate(0 4.9280177926790145 -20.401776111581597)"><path d="M-0.47 1.17 C1.07 0.42, 6.02 -2.95, 8.64 -4.93 C11.26 -6.9, 13.89 -8.47, 15.25 -10.7 C16.61 -12.92, 16.64 -15.41, 16.81 -18.3 C16.97 -21.18, 16.86 -25.2, 16.26 -27.99 C15.66 -30.78, 14.63 -33.1, 13.19 -35.03 C11.75 -36.95, 9.59 -38.58, 7.61 -39.54 C5.63 -40.5, 3.28 -41.17, 1.29 -40.78 C-0.69 -40.4, -2.71 -37.78, -4.3 -37.24 C-5.89 -36.7, -7.53 -37.69, -8.23 -37.54 M1.49 0.74 C2.88 0.22, 5.31 -1.2, 7.48 -3.41 C9.65 -5.61, 12.96 -10.18, 14.52 -12.5 C16.09 -14.82, 16.29 -14.72, 16.87 -17.31 C17.44 -19.91, 18.43 -25.46, 17.97 -28.05 C17.52 -30.63, 15.81 -30.67, 14.16 -32.83 C12.5 -35, 9.79 -39.62, 8.04 -41.05 C6.28 -42.49, 5.88 -41.95, 3.62 -41.44 C1.36 -40.93, -3.68 -39.11, -5.54 -38.01 C-7.41 -36.91, -7.11 -35.29, -7.58 -34.84" stroke="black" stroke-width="4" fill="none"></path></g></g><g transform="translate(195.9737383160675 242.55987833358262) rotate(0 33.729405849353526 14.793599056733996)"><text x="0" y="20.587198113468002" font-family="Virgil, Segoe UI Emoji" font-size="23.66975849077438px" fill="#000000" text-anchor="start" style="white-space: pre;" direction="ltr">iCloud</text></g><g stroke-linecap="round"><g transform="translate(476.9956675880987 466.80186641812674) rotate(0 50.123391728209185 -0.7592746125852159)"><path d="M1.02 -0.35 C17.72 -0.53, 83.73 -0.9, 100.15 -1 M0.1 -1.58 C16.62 -1.64, 82.1 -0.19, 99.08 0.07" stroke="black" stroke-width="4" fill="none"></path></g></g><g stroke-linecap="round"><g transform="translate(479.9018767918605 465.8386872437147) rotate(0 -1.615743238672735 -16.826752375635067)"><path d="M-0.35 -0.23 C-1.47 -0.8, -5.24 -1.62, -6.63 -2.38 C-8.03 -3.13, -8.19 -3.72, -8.74 -4.75 C-9.29 -5.78, -9.79 -6.21, -9.94 -8.56 C-10.09 -10.9, -10.2 -16.64, -9.63 -18.81 C-9.05 -20.99, -7.59 -19.89, -6.48 -21.62 C-5.36 -23.35, -4.52 -27.46, -2.91 -29.21 C-1.3 -30.96, 1.78 -31.63, 3.18 -32.11 C4.57 -32.6, 4.76 -32.06, 5.45 -32.12 M1.66 -1.4 C0.91 -1.32, -3.07 -0.87, -4.4 -1.28 C-5.72 -1.7, -5.37 -2.81, -6.29 -3.86 C-7.21 -4.92, -9.67 -5.14, -9.91 -7.62 C-10.15 -10.1, -8.01 -16.33, -7.75 -18.74 C-7.48 -21.14, -9.19 -20.6, -8.3 -22.04 C-7.4 -23.49, -4.09 -25.68, -2.39 -27.4 C-0.69 -29.11, 0.36 -31.34, 1.9 -32.35 C3.44 -33.35, 6.35 -33.31, 6.83 -33.42" stroke="black" stroke-width="4" fill="none"></path></g></g><g stroke-linecap="round"><g transform="translate(483.98186706222697 432.8540601279025) rotate(0 20.201362077222313 -16.762082027583062)"><path d="M-0.23 -0.9 C-1.1 -2.95, -3.51 -9.65, -4.2 -12.6 C-4.89 -15.54, -4.7 -16.91, -4.38 -18.59 C-4.06 -20.27, -3.45 -21.18, -2.29 -22.67 C-1.13 -24.15, 0.5 -25.97, 2.58 -27.51 C4.65 -29.05, 8.3 -30.86, 10.17 -31.91 C12.04 -32.96, 11.27 -33.37, 13.78 -33.81 C16.3 -34.26, 21.62 -35.15, 25.25 -34.58 C28.87 -34.01, 33.38 -31.4, 35.51 -30.4 C37.64 -29.4, 36.46 -30.69, 38.01 -28.58 C39.57 -26.48, 43.52 -19.76, 44.85 -17.78 M-1.81 1.23 C-2.39 -0.64, -1.92 -8.38, -1.93 -11.5 C-1.95 -14.62, -1.87 -15.76, -1.91 -17.49 C-1.96 -19.22, -3.27 -20.34, -2.21 -21.87 C-1.15 -23.4, 2.66 -24.82, 4.45 -26.69 C6.24 -28.55, 6.96 -32.23, 8.54 -33.07 C10.11 -33.91, 11.29 -31.95, 13.92 -31.75 C16.55 -31.55, 20.99 -31.92, 24.33 -31.87 C27.66 -31.81, 31.52 -31.94, 33.91 -31.42 C36.31 -30.9, 36.81 -31.17, 38.67 -28.77 C40.53 -26.36, 43.99 -19, 45.07 -16.99" stroke="black" stroke-width="4" fill="none"></path></g></g><g stroke-linecap="round"><g transform="translate(529.9605718251689 414.09202464740457) rotate(0 19.278065994725864 4.897683356117454)"><path d="M-0.9 -0.85 C-0.05 -1.55, 2.43 -3.68, 4.77 -4.44 C7.1 -5.19, 8.97 -5.47, 13.12 -5.37 C17.26 -5.28, 25.62 -5.13, 29.63 -3.87 C33.64 -2.6, 35.74 -0.6, 37.17 2.22 C38.59 5.04, 38.04 11.07, 38.17 13.07 M0.82 1.32 C2.08 0.77, 5.15 -2.4, 7.04 -3.33 C8.92 -4.25, 8.38 -4.26, 12.13 -4.22 C15.89 -4.18, 25.57 -3.71, 29.57 -3.08 C33.57 -2.45, 34.47 -3.48, 36.12 -0.43 C37.77 2.61, 39.1 12.95, 39.46 15.18" stroke="black" stroke-width="4" fill="none"></path></g></g><g stroke-linecap="round"><g transform="translate(575.8403536154481 465.9843386169186) rotate(0 5.1259408732511815 -19.654781339259983)"><path d="M-0.85 -0.84 C0.56 -1.58, 5.6 -3.39, 8.22 -5.3 C10.84 -7.21, 13.47 -10.31, 14.86 -12.3 C16.25 -14.29, 15.98 -14.74, 16.56 -17.25 C17.14 -19.76, 18.92 -24.47, 18.34 -27.37 C17.75 -30.28, 14.75 -32.52, 13.07 -34.69 C11.38 -36.86, 10.07 -39.59, 8.23 -40.39 C6.38 -41.19, 4.28 -39.9, 2.03 -39.49 C-0.23 -39.07, -3.62 -38.32, -5.33 -37.9 C-7.03 -37.47, -7.91 -37.3, -8.19 -36.96 M0.91 1.33 C2.72 0.84, 8.34 -1.88, 10.51 -3.98 C12.68 -6.09, 12.93 -8.73, 13.92 -11.29 C14.92 -13.86, 15.9 -16.74, 16.49 -19.38 C17.09 -22.01, 17.9 -24.34, 17.48 -27.1 C17.06 -29.87, 15.39 -34.06, 13.98 -35.99 C12.56 -37.92, 11.12 -38.1, 8.97 -38.68 C6.82 -39.26, 3.15 -39.41, 1.08 -39.46 C-0.99 -39.52, -2.02 -39.32, -3.45 -39.01 C-4.88 -38.7, -7.07 -37.75, -7.52 -37.6" stroke="black" stroke-width="4" fill="none"></path></g></g><g transform="translate(495.55393851137984 426.9932584605347) rotate(0 34.5 15)"><text x="0" y="21" font-family="Virgil, Segoe UI Emoji" font-size="23.66975849077438px" fill="#000000" text-anchor="start" style="white-space: pre;" direction="ltr">github</text></g><g stroke-linecap="round" transform="translate(426.312152619761 231.25597062984508) rotate(0 18.188147799889975 27.599503623429257)"><path d="M-1.35 -1.8 L35.35 -1.14 L36.24 55.14 L-1.11 55.72" stroke="none" stroke-width="0" fill="#fff"></path><path d="M-0.97 1.76 C11.55 0.18, 22.14 0.15, 34.41 -1.34 M-0.13 -0.03 C9.32 -0.31, 20.41 -0.76, 36.06 0.73 M36.24 1.85 C38.35 12.69, 34.99 23.68, 36.65 55.94 M37.21 0.69 C36.29 15.76, 36.16 31.41, 36.93 54.4 M37.96 55.31 C23.48 53.73, 14.6 55.62, 0.97 54.54 M36.97 56.08 C23.46 56.23, 9.66 56.24, -0.73 54.69 M0.96 54.32 C-0.35 42.23, -1.4 24.58, -0.67 0.35 M0.91 54.98 C0.81 37.87, -0.48 18.27, 0.43 -0.09" stroke="#000000" stroke-width="2" fill="none"></path></g><g stroke-linecap="round" transform="translate(422.4276991907074 227.64292633132453) rotate(0 18.188147799889975 27.599503623429257)"><path d="M-1.8 -1.02 L35.23 -0.13 L36.32 54.09 L0.52 54.93" stroke="none" stroke-width="0" fill="#fff"></path><path d="M1.76 0.49 C9.63 0.2, 19.34 -1.79, 35.04 -0.51 M-0.03 -0.67 C13.9 0.48, 27.59 -0.27, 37.1 -0.75 M38.23 1.55 C36.76 18.96, 35.31 41.82, 37.12 54.88 M37.06 -0.64 C35.92 21.27, 35.88 44.62, 35.58 55.36 M36.49 53.81 C27 56.71, 20.98 56.46, -0.66 56.78 M37.25 56.08 C26.89 56.28, 16.63 54.69, -0.5 54.87 M-0.87 54.77 C1.92 37.93, -0.98 22.96, 0.35 0.51 M-0.22 55.77 C0.1 40.3, -1.52 27.27, -0.09 -0.68" stroke="#000000" stroke-width="2" fill="none"></path></g><g stroke-linecap="round" transform="translate(417.5923085857864 223.3948708289858) rotate(0 18.188147799889975 27.599503623429257)"><path d="M-1.02 -1.14 L36.24 -0.06 L35.27 55.72 L-0.27 54.23" stroke="none" stroke-width="0" fill="#fff"></path><path d="M0.49 -0.11 C8.03 -0.46, 14.04 -1.66, 35.87 1.78 M-0.67 -0.25 C11.95 -0.69, 22.73 0.74, 35.63 0.76 M37.93 0.25 C34.53 16.65, 36.61 36.44, 36.06 57.18 M35.74 0.07 C36.07 11.3, 37.39 21.73, 36.54 54.38 M34.98 53.75 C26.91 55.66, 15.97 54.56, 1.58 54.85 M37.26 55.98 C23.81 56.31, 8.79 55.01, -0.33 55.06 M-0.43 56.98 C-1.74 38.94, -0.93 25.27, 0.51 -0.86 M0.57 55.85 C-1.22 32.17, -0.07 10.99, -0.68 -0.9" stroke="#000000" stroke-width="2" fill="none"></path></g><g stroke-linecap="round"><g transform="translate(424.2518868947572 250.37509833402584) rotate(0 12.030144588342353 -1.9553285361056112)"><path d="M0.29 -1.57 C3.86 -1.74, 17.07 -1.12, 20.82 -1.51 C24.57 -1.89, 22.32 -3.81, 22.8 -3.9 M-1.01 -2.65 C2.45 -2.11, 15.53 0.05, 19.88 -0.01 C24.22 -0.07, 24.42 -2.33, 25.07 -3" stroke="#000000" stroke-width="1" fill="none"></path></g></g><g stroke-linecap="round"><g transform="translate(425.472932604508 234.2217236230146) rotate(0 11.780236575764434 -2.3284216889427682)"><path d="M-0.07 -1.35 C1.19 -1.83, 4.79 -3.9, 8.58 -3.98 C12.36 -4.06, 19.99 -2.28, 22.65 -1.83 M-1.56 -2.39 C-0.56 -2.8, 3.14 -3.35, 7.58 -3.06 C12.03 -2.78, 22.77 -1.17, 25.12 -0.68" stroke="#000000" stroke-width="1" fill="none"></path></g></g><g stroke-linecap="round"><g transform="translate(425.37555285623256 268.01211126836864) rotate(0 11.995740909870563 -0.41331746061968033)"><path d="M0.01 -1.04 C2.03 -1.18, 9.24 -2.28, 12.42 -1.89 C15.59 -1.5, 16.95 1.34, 19.06 1.3 C21.17 1.26, 24.12 -1.45, 25.08 -2.13 M-1.44 -2.13 C0.9 -2.14, 11.25 -1.05, 14.51 -0.77 C17.77 -0.5, 16.31 -0.42, 18.13 -0.48 C19.95 -0.53, 24.56 -0.72, 25.43 -1.11" stroke="#000000" stroke-width="1" fill="none"></path></g></g><g stroke-linecap="round"><g transform="translate(423.80983746936766 274.0202392477415) rotate(0 13.687695749619138 -1.0905176122277283)"><path d="M-0.09 -2.29 C0.66 -2.45, 2.85 -2.18, 4.43 -2.02 C6 -1.86, 6.16 -1.54, 9.37 -1.35 C12.57 -1.15, 20.68 -0.63, 23.65 -0.84 C26.62 -1.05, 26.39 -2.21, 27.2 -2.59 M-1.59 -0.3 C-0.45 -0.27, 4.93 -0.7, 6.72 -0.64 C8.51 -0.58, 6.31 -0.07, 9.16 0.08 C12.01 0.22, 20.51 0.65, 23.81 0.24 C27.11 -0.16, 28.51 -2.16, 28.97 -2.36" stroke="#000000" stroke-width="1" fill="none"></path></g></g><g stroke-linecap="round"><g transform="translate(423.7564679469371 240.57212855166398) rotate(0 11.587932802649505 0.33251112471589295)"><path d="M-1.18 -1.09 C0.33 -0.95, 4.8 0.21, 9.06 0.47 C13.32 0.74, 21.85 0.62, 24.35 0.52 M0.4 1.1 C1.73 0.94, 4.07 -1.2, 7.95 -1.09 C11.83 -0.98, 20.96 1.48, 23.69 1.76" stroke="#000000" stroke-width="1" fill="none"></path></g></g><g stroke-linecap="round"><g transform="translate(423.6304700815859 258.8077979650196) rotate(0 11.272467666032071 -0.2155423397279037)"><path d="M-0.8 -0.59 C0.08 -0.24, 3.56 0.66, 5.23 0.65 C6.9 0.64, 6.18 -0.59, 9.2 -0.63 C12.22 -0.68, 20.77 0.31, 23.35 0.39 M0.97 -1.8 C1.8 -1.73, 3.61 -1.78, 4.84 -1.37 C6.07 -0.96, 5.3 0.21, 8.35 0.66 C11.41 1.11, 20.66 1.48, 23.17 1.34" stroke="#000000" stroke-width="1" fill="none"></path></g></g><g stroke-linecap="round" transform="translate(584.8626215969889 227.9697294205883) rotate(0 18.188147799889975 27.599503623429257)"><path d="M-0.69 -1.37 L38.14 -0.6 L35.04 57.05 L0.65 56.25" stroke="none" stroke-width="0" fill="#fff"></path><path d="M-0.28 -0.72 C11.04 -1.34, 26.57 -1.01, 37.32 1.94 M-0.74 -0.46 C10.38 -0.83, 22.46 0.57, 35.5 0.46 M37.23 -1.27 C35.77 22.35, 35.67 40.49, 37.41 55.42 M36.72 -0.27 C35.64 15.5, 35.49 31.42, 36.24 54.41 M35.87 55.91 C25.95 55.24, 11.2 54.69, 1.82 56.12 M35.73 55.78 C23.3 55.65, 7.89 54.47, -0.6 54.57 M-0.26 56.57 C-0.96 39.96, -0.86 25.94, 1.92 0.42 M0.63 55.3 C-0.43 42.21, 0.47 30.1, 0.34 -0.01" stroke="#000000" stroke-width="2" fill="none"></path></g><g stroke-linecap="round" transform="translate(580.9781681679351 224.35668512206763) rotate(0 18.188147799889975 27.599503623429257)"><path d="M-1.37 1.76 L35.77 -1.33 L38.23 55.85 L1.05 54.07" stroke="none" stroke-width="0" fill="#fff"></path><path d="M-0.72 -1.49 C12.74 1.57, 26.93 0.99, 38.32 0.11 M-0.46 -0.73 C9.86 0.51, 21.61 -0.61, 36.84 0.72 M35.11 -1.02 C38.17 19.53, 35.76 42.34, 36.6 55.07 M36.1 -0.23 C35.16 11.09, 34.89 22.79, 35.59 55.58 M37.09 57.06 C27.45 54.51, 18.06 56.93, 0.92 56.77 M36.96 55.89 C26.78 54.01, 15.23 54.36, -0.63 54.98 M1.37 54.32 C0.37 37.01, 1.71 22.3, 0.42 -1.37 M0.1 54.63 C-0.42 40.36, 0.25 25.2, -0.01 -0.34" stroke="#000000" stroke-width="2" fill="none"></path></g><g stroke-linecap="round" transform="translate(576.1427775630141 220.10862961972913) rotate(0 18.188147799889975 27.599503623429257)"><path d="M1.76 -0.6 L35.04 1.85 L37.03 56.25 L-1.12 55.17" stroke="none" stroke-width="0" fill="#fff"></path><path d="M-1.49 -1.13 C14.48 -0.67, 26.88 2.07, 36.48 -0.31 M-0.73 -0.49 C14.56 1.08, 27.76 0.63, 37.1 0.74 M35.36 1.79 C35.49 15.98, 37.65 33.43, 36.25 53.35 M36.14 -0.7 C36.19 10.48, 36.43 22.12, 36.76 54.63 M38.24 55.12 C23.7 54.7, 14.03 56.25, 1.57 54.9 M37.06 55.97 C27.65 54.99, 20.24 54.78, -0.22 55.35 M-0.88 55.32 C-0.71 42.57, 1.99 27.44, -1.37 -0.5 M-0.57 54.99 C-0.02 36.95, -0.01 17.76, -0.34 -0.69" stroke="#000000" stroke-width="2" fill="none"></path></g><g stroke-linecap="round"><g transform="translate(582.8023558719851 245.5879511798649) rotate(0 11.851933227265306 -0.2564358081102114)"><path d="M-0.89 -0.68 C2.75 -0.67, 17.48 -0.44, 21.71 -0.4 C25.95 -0.36, 24.15 -0.2, 24.54 -0.43 M0.84 1.58 C4.42 1.78, 17.37 1.51, 21.24 0.88 C25.12 0.26, 23.56 -1.88, 24.07 -2.16" stroke="#000000" stroke-width="1" fill="none"></path></g></g><g stroke-linecap="round"><g transform="translate(584.0234015817359 229.5749638199589) rotate(0 11.96900338783189 -0.72817938488447)"><path d="M-0.68 0.91 C0.76 0.91, 3.97 -0.71, 8.18 -0.88 C12.4 -1.05, 22.1 -0.41, 24.62 -0.1 M1.17 0.34 C2.44 0.07, 3.1 -2.85, 6.98 -2.7 C10.86 -2.55, 21.72 0.96, 24.46 1.25" stroke="#000000" stroke-width="1" fill="none"></path></g></g><g stroke-linecap="round"><g transform="translate(583.9260218334603 263.7720618795443) rotate(0 12.963927680995084 0.16255820958420486)"><path d="M0.91 -0.48 C3.42 -0.2, 11.07 0.79, 14.16 1.03 C17.25 1.28, 17.45 1.5, 19.43 1.01 C21.4 0.52, 25.18 -1.42, 26 -1.9 M-0.07 -1.78 C2.41 -1.74, 10.38 -1.15, 13.51 -0.48 C16.64 0.19, 17.08 2.36, 18.69 2.23 C20.31 2.09, 21.92 -0.57, 23.18 -1.26" stroke="#000000" stroke-width="1" fill="none"></path></g></g><g stroke-linecap="round"><g transform="translate(582.3603064465956 269.6191573091199) rotate(0 14.186882113426066 -0.36505506091111783)"><path d="M-0.48 0.57 C0.7 0.32, 4.96 -0.56, 6.4 -0.54 C7.83 -0.52, 5.36 0.64, 8.12 0.69 C10.87 0.74, 19.75 0.18, 22.92 -0.23 C26.09 -0.64, 26.23 -1.79, 27.13 -1.76 M1.47 -0.18 C2.65 -0.29, 5.1 1.18, 6.06 1.03 C7.02 0.89, 4.48 -0.99, 7.25 -1.06 C10.03 -1.14, 19.1 0.69, 22.7 0.58 C26.3 0.48, 28.27 -1.49, 28.86 -1.68" stroke="#000000" stroke-width="1" fill="none"></path></g></g><g stroke-linecap="round"><g transform="translate(582.3069369241648 236.99891908058913) rotate(0 12.339652114721275 0.3221283278628846)"><path d="M0.57 1.16 C1.99 1.16, 5.31 -0.31, 9.43 -0.49 C13.55 -0.67, 22.91 -0.02, 25.28 0.08 M-0.6 0.73 C0.59 0.96, 4.23 0.92, 8.51 0.95 C12.8 0.98, 22.59 0.97, 25.1 0.93" stroke="#000000" stroke-width="1" fill="none"></path></g></g><g stroke-linecap="round"><g transform="translate(582.1809390588137 255.23458849394484) rotate(0 11.79721036068753 0.4533282392029321)"><path d="M1.16 0.06 C1.91 0.28, 2.76 2.01, 3.98 1.86 C5.2 1.71, 5.26 -0.61, 8.47 -0.85 C11.69 -1.1, 20.62 -0.1, 23.28 0.39 M0.32 -0.95 C0.93 -1.09, 1.17 0.14, 2.93 0.33 C4.7 0.51, 7.55 0.04, 10.9 0.18 C14.26 0.32, 21.03 1.32, 23.06 1.19" stroke="#000000" stroke-width="1" fill="none"></path></g></g><g transform="translate(489.2280044095443 239.40291160025635) rotate(0 28.5 12.5)"><text x="0" y="18" font-family="Virgil, Segoe UI Emoji" font-size="20px" fill="#000000" text-anchor="start" style="white-space: pre;" direction="ltr">unison</text></g><g stroke-linecap="round"><g transform="translate(463.09933858055837 240.88015166072472) rotate(0 55.17979325959459 -0.7584929774049556)"><path d="M0.94 1.01 C19.09 0.79, 90.13 -0.28, 108.02 -0.58 M-0.03 0.49 C18.59 -0.16, 92.51 -2.55, 110.39 -2.53" stroke="#000000" stroke-width="1" fill="none"></path></g><g transform="translate(463.09933858055837 240.88015166072472) rotate(0 55.17979325959459 -0.7584929774049556)"><path d="M84.07 7.16 C89.23 4.88, 95.31 4.12, 108.59 -4.18 M82.11 8.42 C92.21 3.62, 101.96 1.19, 111.05 -2.03" stroke="#000000" stroke-width="1" fill="none"></path></g><g transform="translate(463.09933858055837 240.88015166072472) rotate(0 55.17979325959459 -0.7584929774049556)"><path d="M83.7 -13.36 C89.07 -10.98, 95.23 -7.07, 108.59 -4.18 M81.73 -12.09 C91.81 -9.58, 101.69 -4.69, 111.05 -2.03" stroke="#000000" stroke-width="1" fill="none"></path></g></g><g stroke-linecap="round"><g transform="translate(573.5556374086834 222.70827666072472) rotate(0 -56.17271559424694 1.781403048709052)"><path d="M-1.14 -0.88 C-19.68 -0.22, -93.39 3.66, -112.04 4.44 M0.46 1.28 C-18.14 1.56, -93.7 2.15, -112.8 2.82" stroke="#000000" stroke-width="1" fill="none"></path></g><g transform="translate(573.5556374086834 222.70827666072472) rotate(0 -56.17271559424694 1.781403048709052)"><path d="M-86.28 -7.41 C-89.67 -6.82, -97.23 -2.04, -114.2 1.94 M-84.88 -7.84 C-90.91 -6.07, -97.81 -2.53, -113.5 2.29" stroke="#000000" stroke-width="1" fill="none"></path></g><g transform="translate(573.5556374086834 222.70827666072472) rotate(0 -56.17271559424694 1.781403048709052)"><path d="M-85.88 13.11 C-89.45 8.94, -97.11 8.95, -114.2 1.94 M-84.48 12.68 C-90.45 9.86, -97.44 8.82, -113.5 2.29" stroke="#000000" stroke-width="1" fill="none"></path></g></g><g stroke-linecap="round"><g transform="translate(404.46799092430837 257.6039065435372) rotate(0 -50.056591822728535 0.212743084058161)"><path d="M-0.07 0.46 C-16.59 0.36, -82.67 -0.21, -99.41 -0.43 M-1.57 -0.34 C-18.17 -0.3, -83.38 0.79, -100.04 0.85" stroke="#000000" stroke-width="1" fill="none"></path></g><g transform="translate(404.46799092430837 257.6039065435372) rotate(0 -50.056591822728535 0.212743084058161)"><path d="M-71.2 -8.73 C-80.53 -7.63, -88.95 -2.29, -100.1 1.46 M-71.6 -9.78 C-80.34 -7.18, -86.4 -4.78, -100.34 1.55" stroke="#000000" stroke-width="1" fill="none"></path></g><g transform="translate(404.46799092430837 257.6039065435372) rotate(0 -50.056591822728535 0.212743084058161)"><path d="M-70.97 11.79 C-80.4 7.22, -88.89 6.88, -100.1 1.46 M-71.37 10.74 C-80 7.75, -86.12 4.56, -100.34 1.55" stroke="#000000" stroke-width="1" fill="none"></path></g></g><g stroke-linecap="round"><g transform="translate(308.4703712954021 271.1983889654122) rotate(0 45.34683348514142 -1.0903471987694502)"><path d="M0.08 -0.3 C15.51 -0.69, 76.54 -1.78, 92.03 -1.88 M-1.33 -1.5 C13.94 -1.78, 75.17 -1.05, 90.8 -0.71" stroke="#000000" stroke-width="1" fill="none"></path></g><g transform="translate(308.4703712954021 271.1983889654122) rotate(0 45.34683348514142 -1.0903471987694502)"><path d="M61.96 8.24 C68.46 7.37, 77.26 4.46, 91.22 -2.58 M61.87 8.94 C68.78 6.55, 73.59 4.99, 91.28 -1.16" stroke="#000000" stroke-width="1" fill="none"></path></g><g transform="translate(308.4703712954021 271.1983889654122) rotate(0 45.34683348514142 -1.0903471987694502)"><path d="M62.28 -12.28 C68.78 -7.93, 77.49 -5.62, 91.22 -2.58 M62.19 -11.58 C69.01 -9.81, 73.75 -7.22, 91.28 -1.16" stroke="#000000" stroke-width="1" fill="none"></path></g></g><g stroke-linecap="round"><g transform="translate(242.08963399071462 207.99993315486535) rotate(0 -1.9066481030923228 -53.71096840688027)"><path d="M1 0.82 C0.2 -16.74, -3.83 -88.57, -4.82 -106.44 M0.07 0.21 C-0.36 -17.61, -2.14 -90.14, -2.58 -108.24" stroke="#000000" stroke-width="1" fill="none"></path></g><g transform="translate(242.08963399071462 207.99993315486535) rotate(0 -1.9066481030923228 -53.71096840688027)"><path d="M9.74 -81.84 C6.36 -90.26, 3.16 -96.68, -1.77 -107.24 M8.69 -79.7 C4.85 -89.6, 1.37 -101.23, -1.92 -108.18" stroke="#000000" stroke-width="1" fill="none"></path></g><g transform="translate(242.08963399071462 207.99993315486535) rotate(0 -1.9066481030923228 -53.71096840688027)"><path d="M-10.78 -81.33 C-8.04 -90.08, -5.12 -96.65, -1.77 -107.24 M-11.83 -79.2 C-8.26 -89.43, -4.35 -101.24, -1.92 -108.18" stroke="#000000" stroke-width="1" fill="none"></path></g></g><g stroke-linecap="round"><g transform="translate(175.62967305321462 235.8492373540841) rotate(0 -56.79086238555611 -1.6989765230659373)"><path d="M0.08 0.56 C-18.78 0.08, -95.03 -1.9, -113.66 -2.43 M-1.34 -0.19 C-19.77 -1.01, -92.94 -3.23, -111.36 -3.96" stroke="#000000" stroke-width="1" fill="none"></path></g><g transform="translate(175.62967305321462 235.8492373540841) rotate(0 -56.79086238555611 -1.6989765230659373)"><path d="M-81.91 -14.57 C-88.22 -8.94, -95.93 -7.69, -113.01 -3.39 M-82.2 -12.6 C-88.79 -10.27, -93.99 -8.44, -112.03 -3.66" stroke="#000000" stroke-width="1" fill="none"></path></g><g transform="translate(175.62967305321462 235.8492373540841) rotate(0 -56.79086238555611 -1.6989765230659373)"><path d="M-82.61 5.94 C-88.82 6.31, -96.34 2.3, -113.01 -3.39 M-82.9 7.9 C-89.51 6.03, -94.56 3.65, -112.03 -3.66" stroke="#000000" stroke-width="1" fill="none"></path></g></g><g stroke-linecap="round"><g transform="translate(68.81540303368337 258.16170683650597) rotate(0 51.71864532450215 0.9549727146886369)"><path d="M0.03 0.54 C17.26 0.64, 85.51 0.83, 102.54 0.69 M-1.42 -0.22 C16.27 0.05, 87.2 2.02, 104.85 2.13" stroke="#000000" stroke-width="1" fill="none"></path></g><g transform="translate(68.81540303368337 258.16170683650597) rotate(0 51.71864532450215 0.9549727146886369)"><path d="M77.38 10.62 C82.67 7.78, 87.58 7.56, 103.41 3.91 M76.55 11.78 C86.05 7.64, 97.18 5.09, 105.39 2.59" stroke="#000000" stroke-width="1" fill="none"></path></g><g transform="translate(68.81540303368337 258.16170683650597) rotate(0 51.71864532450215 0.9549727146886369)"><path d="M77.76 -9.89 C82.98 -8.02, 87.81 -3.52, 103.41 3.91 M76.93 -8.74 C86.45 -5.58, 97.45 -0.84, 105.39 2.59" stroke="#000000" stroke-width="1" fill="none"></path></g></g><g transform="translate(415.4021339907146 300.48589506892785) rotate(0 27.5 12.5)"><text x="0" y="18" font-family="Virgil, Segoe UI Emoji" font-size="20px" fill="#000000" text-anchor="start" style="white-space: pre;" direction="ltr">icloud</text></g><g stroke-linecap="round"><g transform="translate(224.7731972231365 111.33168974666225) rotate(0 2.2016815494745856 44.935924536958325)"><path d="M0.67 1.15 C1.25 15.95, 2.29 74.74, 2.66 89.17 M-0.43 0.71 C0.58 15.1, 3.87 72.58, 4.84 87.2" stroke="#000000" stroke-width="1" fill="none"></path></g><g transform="translate(224.7731972231365 111.33168974666225) rotate(0 2.2016815494745856 44.935924536958325)"><path d="M-5.22 57.97 C-3.78 64.7, -3.45 71.63, 6.75 88.77 M-7.53 58.85 C-2.95 66.86, -0.51 74.87, 4.53 87.18" stroke="#000000" stroke-width="1" fill="none"></path></g><g transform="translate(224.7731972231365 111.33168974666225) rotate(0 2.2016815494745856 44.935924536958325)"><path d="M15.27 56.72 C11.94 63.85, 7.5 71.07, 6.75 88.77 M12.96 57.59 C11.62 65.97, 8.15 74.33, 4.53 87.18" stroke="#000000" stroke-width="1" fill="none"></path></g></g><g stroke-linecap="round"><g transform="translate(600.3221169008709 298.97945585994347) rotate(0 -32.78237477220597 52.24230199642483)"><path d="M-1.07 -1.15 C-11.95 16.47, -55.51 88.09, -66.14 105.63 M0.57 0.86 C-9.89 18.13, -53.03 86.47, -64.05 103.82" stroke="#000000" stroke-width="1" fill="none"></path></g><g transform="translate(600.3221169008709 298.97945585994347) rotate(0 -32.78237477220597 52.24230199642483)"><path d="M-59.57 72.52 C-58.17 81.42, -62.14 89.61, -64.14 102.03 M-57.62 74.6 C-59.72 83.47, -61.78 93.16, -64.02 102.83" stroke="#000000" stroke-width="1" fill="none"></path></g><g transform="translate(600.3221169008709 298.97945585994347) rotate(0 -32.78237477220597 52.24230199642483)"><path d="M-42.22 83.49 C-44.81 89.71, -52.78 95.37, -64.14 102.03 M-40.28 85.57 C-48.05 90.68, -55.83 96.75, -64.02 102.83" stroke="#000000" stroke-width="1" fill="none"></path></g></g><g stroke-linecap="round"><g transform="translate(553.4221535219647 408.86528960017796) rotate(0 30.007125532403563 -54.504662899300484)"><path d="M1.04 1.2 C11.19 -16.99, 49.96 -91.65, 59.89 -110.21 M0.12 0.78 C10.22 -17.1, 49.02 -90.39, 59.05 -108.64" stroke="#000000" stroke-width="1" fill="none"></path></g><g transform="translate(553.4221535219647 408.86528960017796) rotate(0 30.007125532403563 -54.504662899300484)"><path d="M56.71 -78.61 C56.03 -83.85, 57.12 -90.02, 57.26 -107.65 M53.74 -78.05 C55.36 -84.39, 56.97 -91.77, 58.11 -108.25" stroke="#000000" stroke-width="1" fill="none"></path></g><g transform="translate(553.4221535219647 408.86528960017796) rotate(0 30.007125532403563 -54.504662899300484)"><path d="M38.64 -88.35 C41.77 -91.64, 46.76 -95.71, 57.26 -107.65 M35.68 -87.78 C41.07 -92.04, 46.51 -97.35, 58.11 -108.25" stroke="#000000" stroke-width="1" fill="none"></path></g></g><g transform="translate(585.8822365297772 349.59771147517785) rotate(0 37.5 12.5)"><text x="0" y="18" font-family="Virgil, Segoe UI Emoji" font-size="20px" fill="#000000" text-anchor="start" style="white-space: pre;" direction="ltr">git-sync</text></g><g stroke-linecap="round"><g transform="translate(283.39316182274587 406.1777285650217) rotate(0 93.79347940571606 3.9935702847689356)"><path d="M1.02 -0.52 C32.13 0.64, 156.53 5.65, 187.5 7.18 M0.09 1.83 C31 3.12, 155.74 7.66, 186.69 8.5" stroke="#000000" stroke-width="1" fill="none"></path></g><g transform="translate(283.39316182274587 406.1777285650217) rotate(0 93.79347940571606 3.9935702847689356)"><path d="M157.32 18.3 C167.91 13.48, 180.79 10.11, 185.57 8.06 M157.37 18.75 C164.6 14.73, 172.61 13.17, 187.19 7.9" stroke="#000000" stroke-width="1" fill="none"></path></g><g transform="translate(283.39316182274587 406.1777285650217) rotate(0 93.79347940571606 3.9935702847689356)"><path d="M157.99 -2.21 C168.38 0.48, 181.02 4.61, 185.57 8.06 M158.04 -1.76 C165.22 -0.46, 173.06 3.28, 187.19 7.9" stroke="#000000" stroke-width="1" fill="none"></path></g></g><g stroke-linecap="round"><g transform="translate(471.1797218813396 422.4777773931467) rotate(0 -94.73448390878741 -3.109316861256957)"><path d="M1.09 0.01 C-30.51 -0.8, -157.84 -3.61, -189.93 -4.27 M0.21 -1.03 C-31.47 -2.27, -159.02 -5.41, -190.56 -6.23" stroke="#000000" stroke-width="1" fill="none"></path></g><g transform="translate(471.1797218813396 422.4777773931467) rotate(0 -94.73448390878741 -3.109316861256957)"><path d="M-162.1 -14.79 C-169.39 -14.44, -176.64 -11.97, -190.75 -6.57 M-162.46 -15.35 C-172.25 -12.22, -182.37 -9.13, -190.93 -7" stroke="#000000" stroke-width="1" fill="none"></path></g><g transform="translate(471.1797218813396 422.4777773931467) rotate(0 -94.73448390878741 -3.109316861256957)"><path d="M-162.62 5.73 C-169.87 0.43, -176.97 -2.74, -190.75 -6.57 M-162.98 5.17 C-172.51 1.36, -182.45 -2.48, -190.93 -7" stroke="#000000" stroke-width="1" fill="none"></path></g></g><g transform="translate(335.65622334618337 423.9606875493967) rotate(0 37.5 12.5)"><text x="0" y="18" font-family="Virgil, Segoe UI Emoji" font-size="20px" fill="#000000" text-anchor="start" style="white-space: pre;" direction="ltr">git-sync</text></g><g stroke-opacity="0.6" fill-opacity="0.6" stroke-linecap="round" transform="translate(402.96458718257526 10) rotate(0 127.08971767503368 165.41992602978604)"><path d="M1.41 -0.7 C96.58 -1.14, 191.39 1.02, 254.31 0.53 M255.04 -0.7 C255.41 131.73, 256.37 262.92, 255.16 330.84 M252.67 329.88 C189.53 329.8, 123.19 332.53, 0.85 330.2 M0.71 331.2 C-0.1 249.44, 2.34 170.46, -0.34 -0.88" stroke="#000000" stroke-width="1.5" fill="none" stroke-dasharray="8 9"></path></g></svg>