<svg version="1.1" xmlns="http://www.w3.org/2000/svg" viewBox="0 0 362.2183057328253 567.4743549711336" width="724.4366114656506" height="1134.9487099422672">
  <!-- svg-source:excalidraw -->
  
  <defs>
    <style>
      @font-face {
        font-family: "Virgil";
        src: url("https://excalidraw.com/Virgil.woff2");
      }
      @font-face {
        font-family: "Cascadia";
        src: url("https://excalidraw.com/Cascadia.woff2");
      }
    </style>
  </defs>
  <rect x="0" y="0" width="362.2183057328253" height="567.4743549711336" fill="#FFF"></rect><g stroke-linecap="round" transform="translate(121.71231900018853 480.66319570112887) rotate(0 47.33489970745802 29.383967087022455)"><path d="M0 0 C20.62 0, 41.23 0, 94.67 0 M0 0 C26.55 0, 53.1 0, 94.67 0 M94.67 0 C94.67 21.25, 94.67 42.51, 94.67 58.77 M94.67 0 C94.67 22.84, 94.67 45.67, 94.67 58.77 M94.67 58.77 C64.06 58.77, 33.46 58.77, 0 58.77 M94.67 58.77 C71.67 58.77, 48.67 58.77, 0 58.77 M0 58.77 C0 46.14, 0 33.52, 0 0 M0 58.77 C0 46.85, 0 34.94, 0 0" stroke="#000000" stroke-width="2" fill="none"></path></g><g stroke-linecap="round" transform="translate(125.34524584003958 485.36463043505273) rotate(0 43.70197286760802 25.21678630013568)"><path d="M0 0 L87.4 0 L87.4 50.43 L0 50.43" stroke="none" stroke-width="0" fill="#000000"></path><path d="M0 0 C30.73 0, 61.47 0, 87.4 0 M0 0 C23.98 0, 47.95 0, 87.4 0 M87.4 0 C87.4 12.63, 87.4 25.26, 87.4 50.43 M87.4 0 C87.4 17.37, 87.4 34.74, 87.4 50.43 M87.4 50.43 C58.1 50.43, 28.8 50.43, 0 50.43 M87.4 50.43 C67.56 50.43, 47.72 50.43, 0 50.43 M0 50.43 C0 37.9, 0 25.36, 0 0 M0 50.43 C0 36.61, 0 22.79, 0 0" stroke="#000000" stroke-width="2" fill="none"></path></g><g stroke-linecap="round"><g transform="translate(117.88842479203669 539.6448314539884) rotate(0 51.277011810274075 0)"><path d="M0 0 C36.38 0, 72.77 0, 102.55 0 M0 0 C29.59 0, 59.18 0, 102.55 0" stroke="#000000" stroke-width="2" fill="none"></path></g></g><g stroke-linecap="round"><g transform="translate(120.66966496885658 544.2256215561531) rotate(0 48.88991970649283 0)"><path d="M0 0 C37.57 0, 75.15 0, 97.78 0 M0 0 C20.12 0, 40.23 0, 97.78 0" stroke="#000000" stroke-width="2" fill="none"></path></g></g><g stroke-linecap="round"><g transform="translate(218.49342687655263 544.3762129665859) rotate(0 1.0413945062614403 -2.310114066987012)" fill-rule="evenodd"><path d="" stroke="none" stroke-width="0" fill="#000000" fill-rule="evenodd"></path><path d="M0 0 C0.31 -0.28, 1.52 -0.9, 1.87 -1.67 C2.21 -2.44, 2.03 -4.13, 2.06 -4.62 M0 0 C0.31 -0.28, 1.52 -0.9, 1.87 -1.67 C2.21 -2.44, 2.03 -4.13, 2.06 -4.62" stroke="#000000" stroke-width="2" fill="none"></path></g></g><g stroke-linecap="round"><g transform="translate(120.58391152680548 544.3762129665856) rotate(0 -1.1796327150571813 -2.2609627038596045)" fill-rule="evenodd"><path d="" stroke="none" stroke-width="0" fill="#000000" fill-rule="evenodd"></path><path d="M0 0 C-0.3 -0.15, -1.4 -0.15, -1.79 -0.9 C-2.19 -1.66, -2.26 -3.92, -2.36 -4.52 M0 0 C-0.3 -0.15, -1.4 -0.15, -1.79 -0.9 C-2.19 -1.66, -2.26 -3.92, -2.36 -4.52" stroke="#000000" stroke-width="2" fill="none"></path></g></g><g stroke-linecap="round" transform="translate(161.83100387050018 539.6995589919757) rotate(0 7.021623303911838 0.3240749217190171)"><path d="M0 0 L14.04 0 L14.04 0.65 L0 0.65" stroke="none" stroke-width="0" fill="#000000"></path><path d="M0 0 C4.93 0, 9.87 0, 14.04 0 M0 0 C5.13 0, 10.26 0, 14.04 0 M14.04 0 C14.04 0.17, 14.04 0.35, 14.04 0.65 M14.04 0 C14.04 0.14, 14.04 0.28, 14.04 0.65 M14.04 0.65 C9.78 0.65, 5.51 0.65, 0 0.65 M14.04 0.65 C9.03 0.65, 4.02 0.65, 0 0.65 M0 0.65 C0 0.43, 0 0.2, 0 0 M0 0.65 C0 0.44, 0 0.24, 0 0" stroke="#000000" stroke-width="2" fill="none"></path></g><g transform="translate(152.68056265745696 546.7722477857069) rotate(0 27.825478682109207 5.351053592713328)"><text x="0" y="6.70210718542663" font-family="Virgil, Segoe UI Emoji" font-size="8.5616857483413px" fill="#000000" text-anchor="start" style="white-space: pre;" direction="ltr">MacBookWork</text></g><g stroke-linecap="round"><g transform="translate(114.7007151955209 78.4810125657479) rotate(0 49.613471641288044 -0.5481077610005176)"><path d="M0.08 -0.33 C16.66 -0.43, 83.95 0.58, 100.56 0.44 M-1.33 -1.54 C15.01 -1.5, 83.05 -1.6, 99.71 -1.41" stroke="black" stroke-width="4" fill="none"></path></g></g><g stroke-linecap="round"><g transform="translate(117.60692439928272 77.51783339133573) rotate(0 -1.9368319589949294 -16.48307044421386)"><path d="M-0.33 0.18 C-1.37 -0.2, -3.76 -1.57, -5.2 -2.18 C-6.64 -2.79, -8.15 -2.63, -8.97 -3.48 C-9.79 -4.33, -10.06 -4.71, -10.11 -7.29 C-10.16 -9.87, -9.55 -16.19, -9.25 -18.97 C-8.95 -21.76, -9.45 -22.47, -8.3 -23.98 C-7.15 -25.48, -4.38 -26.69, -2.38 -28.01 C-0.37 -29.33, 2.17 -31.03, 3.75 -31.89 C5.34 -32.74, 6.54 -33.16, 7.15 -33.15 M1.71 -0.77 C0.45 -1.01, -4.48 -0.19, -5.87 -0.99 C-7.26 -1.79, -5.92 -4.19, -6.64 -5.58 C-7.36 -6.97, -9.47 -7.11, -10.17 -9.35 C-10.86 -11.58, -11.29 -16.88, -10.83 -18.98 C-10.37 -21.09, -8.96 -20.27, -7.42 -21.98 C-5.87 -23.69, -3.27 -27.56, -1.57 -29.23 C0.13 -30.91, 1.56 -31.65, 2.78 -32 C4 -32.35, 5.4 -31.33, 5.76 -31.33" stroke="black" stroke-width="4" fill="none"></path></g></g><g stroke-linecap="round"><g transform="translate(121.68691466964907 44.53320627552356) rotate(0 20.861093178250258 -17.002774489880032)"><path d="M0.18 0.53 C-0.5 -1.56, -3.46 -9.61, -4.01 -12.83 C-4.55 -16.04, -3.6 -17.18, -3.11 -18.76 C-2.61 -20.34, -1.95 -20.53, -1.03 -22.29 C-0.11 -24.05, 0.94 -27.82, 2.41 -29.33 C3.89 -30.84, 5.71 -30.72, 7.81 -31.37 C9.9 -32.02, 12.03 -32.99, 14.98 -33.24 C17.92 -33.49, 22.22 -33.37, 25.47 -32.88 C28.72 -32.39, 32.28 -30.96, 34.48 -30.3 C36.68 -29.64, 36.87 -30.88, 38.69 -28.93 C40.51 -26.98, 44.34 -20.66, 45.39 -18.59 M-1.18 -0.24 C-1.48 -2.19, -1.23 -8.94, -1.64 -11.86 C-2.05 -14.77, -3.86 -16.17, -3.63 -17.75 C-3.4 -19.32, -1.59 -19.34, -0.28 -21.3 C1.02 -23.25, 2.73 -27.64, 4.21 -29.47 C5.68 -31.29, 6.67 -31.4, 8.6 -32.25 C10.52 -33.09, 13.06 -34.42, 15.74 -34.53 C18.42 -34.65, 21.29 -33.48, 24.67 -32.94 C28.05 -32.39, 33.5 -31.87, 36 -31.26 C38.51 -30.66, 38.06 -31.46, 39.7 -29.29 C41.35 -27.12, 45.25 -20.37, 45.89 -18.23" stroke="black" stroke-width="4" fill="none"></path></g></g><g stroke-linecap="round"><g transform="translate(167.6656194325912 25.771170795027167) rotate(0 19.026683215977926 4.07156481617859)"><path d="M0.53 -0.65 C1.34 -1.21, 2.46 -2.59, 4.53 -3.16 C6.6 -3.74, 8.7 -3.96, 12.95 -4.11 C17.19 -4.25, 26.27 -4.69, 30 -4.03 C33.74 -3.37, 33.89 -3.19, 35.34 -0.14 C36.79 2.91, 38.18 11.83, 38.71 14.26 M-0.65 1.62 C0.54 0.68, 4.59 -3.78, 6.68 -5.04 C8.77 -6.31, 7.97 -6.24, 11.88 -5.95 C15.79 -5.66, 25.95 -4.25, 30.14 -3.32 C34.33 -2.39, 35.92 -3.15, 37 -0.37 C38.08 2.4, 36.26 11.06, 36.62 13.35" stroke="black" stroke-width="4" fill="none"></path></g></g><g stroke-linecap="round"><g transform="translate(213.54540122287023 77.66348476453965) rotate(0 4.943938183926491 -19.50084286218933)"><path d="M-0.65 -1.07 C0.9 -2.07, 6.7 -3.66, 9.5 -5.47 C12.29 -7.28, 14.97 -9.66, 16.12 -11.93 C17.27 -14.19, 16.43 -16.59, 16.4 -19.07 C16.38 -21.56, 16.33 -24.33, 15.98 -26.84 C15.62 -29.34, 15.52 -32.14, 14.26 -34.12 C13.01 -36.09, 10.66 -37.81, 8.45 -38.69 C6.24 -39.57, 3.18 -39.46, 1 -39.39 C-1.19 -39.31, -3.21 -38.51, -4.65 -38.24 C-6.09 -37.97, -7.09 -38.2, -7.65 -37.77 M1.2 0.98 C2.62 0.08, 6.35 -2.29, 8.79 -4.24 C11.23 -6.19, 14.61 -8.34, 15.85 -10.72 C17.1 -13.1, 15.97 -15.9, 16.25 -18.5 C16.53 -21.09, 17.62 -23.52, 17.54 -26.28 C17.46 -29.05, 17.17 -32.86, 15.8 -35.11 C14.43 -37.35, 11.42 -39.05, 9.32 -39.75 C7.21 -40.45, 5.73 -39.34, 3.17 -39.31 C0.6 -39.27, -4.43 -40.22, -6.08 -39.53 C-7.72 -38.85, -6.43 -35.47, -6.7 -35.19" stroke="black" stroke-width="4" fill="none"></path></g></g><g transform="translate(133.25898611880194 38.67240460815703) rotate(0 33.7294058493535 14.793599056734001)"><text x="0" y="20.587198113468002" font-family="Virgil, Segoe UI Emoji" font-size="23.66975849077438px" fill="#000000" text-anchor="start" style="white-space: pre;" direction="ltr">iCloud</text></g><g stroke-linecap="round" transform="translate(10 132.50373248560538) rotate(0 24.653799040047772 46.733849828661945)"><path d="M0 0 C10.38 0, 20.75 0, 49.31 0 M0 0 C16.55 0, 33.1 0, 49.31 0 M49.31 0 C49.31 36.21, 49.31 72.43, 49.31 93.47 M49.31 0 C49.31 29.72, 49.31 59.44, 49.31 93.47 M49.31 93.47 C32.09 93.47, 14.88 93.47, 0 93.47 M49.31 93.47 C36.7 93.47, 24.1 93.47, 0 93.47 M0 93.47 C0 69.86, 0 46.26, 0 0 M0 93.47 C0 63.64, 0 33.82, 0 0" stroke="#000000" stroke-width="2" fill="none"></path></g><g stroke-linecap="round" transform="translate(12.267179900154645 137.10938725132866) rotate(0 22.336712664103402 40.9767813715079)"><path d="M0 0 L44.67 0 L44.67 81.95 L0 81.95" stroke="none" stroke-width="0" fill="#000000"></path><path d="M0 0 C15.11 0, 30.22 0, 44.67 0 M0 0 C15.4 0, 30.81 0, 44.67 0 M44.67 0 C44.67 18.9, 44.67 37.8, 44.67 81.95 M44.67 0 C44.67 29.77, 44.67 59.54, 44.67 81.95 M44.67 81.95 C31.91 81.95, 19.14 81.95, 0 81.95 M44.67 81.95 C27.6 81.95, 10.52 81.95, 0 81.95 M0 81.95 C0 51.64, 0 21.33, 0 0 M0 81.95 C0 51.35, 0 20.74, 0 0" stroke="#000000" stroke-width="1" fill="none"></path></g><g stroke-linecap="round" transform="translate(26.526172982889477 221.23031694292024) rotate(0 7.992165622872619 1.3546043428597727)"><path d="M0.68 0 L15.31 0 L15.98 2.03 L15.31 2.71 L0.68 2.71 L0 2.03 L0.68 0" stroke="none" stroke-width="0" fill="#000000"></path><path d="M0.68 0 M0.68 0 C5.27 0, 9.87 0, 15.31 0 M0.68 0 C4.05 0, 7.42 0, 15.31 0 M15.31 0 C15.76 0, 15.98 0.23, 15.98 0.68 M15.31 0 C15.76 0, 15.98 0.23, 15.98 0.68 M15.98 0.68 C15.98 1.09, 15.98 1.5, 15.98 2.03 M15.98 0.68 C15.98 1.06, 15.98 1.45, 15.98 2.03 M15.98 2.03 C15.98 2.48, 15.76 2.71, 15.31 2.71 M15.98 2.03 C15.98 2.48, 15.76 2.71, 15.31 2.71 M15.31 2.71 C10.27 2.71, 5.24 2.71, 0.68 2.71 M15.31 2.71 C9.9 2.71, 4.48 2.71, 0.68 2.71 M0.68 2.71 C0.23 2.71, 0 2.48, 0 2.03 M0.68 2.71 C0.23 2.71, 0 2.48, 0 2.03 M0 2.03 C0 1.7, 0 1.38, 0 0.68 M0 2.03 C0 1.56, 0 1.08, 0 0.68 M0 0.68 C0 0.23, 0.23 0, 0.68 0 M0 0.68 C0 0.23, 0.23 0, 0.68 0" stroke="#000000" stroke-width="1" fill="none"></path></g><g stroke-linecap="round" transform="translate(26.143200741255953 134.3101120131539) rotate(0 7.7889749714436505 0.609571954286892)"><path d="M0.3 0 L15.27 0 L15.58 0.91 L0.3 1.22 L0.3 0" stroke="none" stroke-width="0" fill="#000000"></path><path d="M0.3 0 M0.3 0 C3.69 0, 7.08 0, 15.27 0 M0.3 0 C5.94 0, 11.57 0, 15.27 0 M15.27 0 C15.48 0, 15.58 0.1, 15.58 0.3 M15.27 0 C15.48 0, 15.58 0.1, 15.58 0.3 M15.58 0.3 C15.58 0.44, 15.58 0.58, 15.58 0.91 M15.58 0.3 C15.58 0.44, 15.58 0.57, 15.58 0.91 M15.58 0.91 C15.58 1.12, 15.48 1.22, 15.27 1.22 M15.58 0.91 C15.58 1.12, 15.48 1.22, 15.27 1.22 M15.27 1.22 C11.28 1.22, 7.28 1.22, 0.3 1.22 M15.27 1.22 C10.7 1.22, 6.12 1.22, 0.3 1.22 M0.3 1.22 C0.1 1.22, 0 1.12, 0 0.91 M0.3 1.22 C0.1 1.22, 0 1.12, 0 0.91 M0 0.91 C0 0.7, 0 0.49, 0 0.3 M0 0.91 C0 0.76, 0 0.61, 0 0.3 M0 0.3 C0 0.1, 0.1 0, 0.3 0 M0 0.3 C0 0.1, 0.1 0, 0.3 0" stroke="#000000" stroke-width="1" fill="none"></path></g><g transform="translate(30.000000000000057 232.50373248560538) rotate(0 12.842528622511935 5.351053592713313)"><text x="0" y="6.70210718542663" font-family="Virgil, Segoe UI Emoji" font-size="8.561685748341297px" fill="#000000" text-anchor="start" style="white-space: pre;" direction="ltr">iPhone</text></g><g stroke-linecap="round" transform="translate(118.36978970331364 151.99752965863195) rotate(0 47.33489970745802 29.383967087022455)"><path d="M0 0 C20.45 0, 40.89 0, 94.67 0 M0 0 C31.15 0, 62.29 0, 94.67 0 M94.67 0 C94.67 23.1, 94.67 46.21, 94.67 58.77 M94.67 0 C94.67 15.24, 94.67 30.47, 94.67 58.77 M94.67 58.77 C69.1 58.77, 43.53 58.77, 0 58.77 M94.67 58.77 C59.52 58.77, 24.37 58.77, 0 58.77 M0 58.77 C0 43.05, 0 27.33, 0 0 M0 58.77 C0 39.48, 0 20.19, 0 0" stroke="#000000" stroke-width="2" fill="none"></path></g><g stroke-linecap="round" transform="translate(122.00271654316481 156.69896439255564) rotate(0 43.70197286760802 25.216786300135666)"><path d="M0 0 L87.4 0 L87.4 50.43 L0 50.43" stroke="none" stroke-width="0" fill="#000000"></path><path d="M0 0 C17.56 0, 35.12 0, 87.4 0 M0 0 C17.56 0, 35.11 0, 87.4 0 M87.4 0 C87.4 14.81, 87.4 29.62, 87.4 50.43 M87.4 0 C87.4 14.34, 87.4 28.68, 87.4 50.43 M87.4 50.43 C59.04 50.43, 30.67 50.43, 0 50.43 M87.4 50.43 C66.26 50.43, 45.12 50.43, 0 50.43 M0 50.43 C0 37.08, 0 23.73, 0 0 M0 50.43 C0 36.1, 0 21.77, 0 0" stroke="#000000" stroke-width="2" fill="none"></path></g><g stroke-linecap="round"><g transform="translate(114.54589549516191 210.97916541149158) rotate(0 51.277011810274075 0)"><path d="M0 0 C33.39 0, 66.78 0, 102.55 0 M0 0 C30.55 0, 61.09 0, 102.55 0" stroke="#000000" stroke-width="2" fill="none"></path></g></g><g stroke-linecap="round"><g transform="translate(117.32713567198135 215.55995551365646) rotate(0 48.88991970649283 0)"><path d="M0 0 C31.23 0, 62.46 0, 97.78 0 M0 0 C36.79 0, 73.57 0, 97.78 0" stroke="#000000" stroke-width="2" fill="none"></path></g></g><g stroke-linecap="round"><g transform="translate(215.1508975796774 215.7105469240886) rotate(0 1.0413945062614403 -2.310114066987012)" fill-rule="evenodd"><path d="" stroke="none" stroke-width="0" fill="#000000" fill-rule="evenodd"></path><path d="M0 0 C0.31 -0.28, 1.52 -0.9, 1.87 -1.67 C2.21 -2.44, 2.03 -4.13, 2.06 -4.62 M0 0 C0.31 -0.28, 1.52 -0.9, 1.87 -1.67 C2.21 -2.44, 2.03 -4.13, 2.06 -4.62" stroke="#000000" stroke-width="2" fill="none"></path></g></g><g stroke-linecap="round"><g transform="translate(117.24138222993116 215.7105469240891) rotate(0 -1.1796327150571813 -2.2609627038596187)" fill-rule="evenodd"><path d="" stroke="none" stroke-width="0" fill="#000000" fill-rule="evenodd"></path><path d="M0 0 C-0.3 -0.15, -1.4 -0.15, -1.79 -0.9 C-2.19 -1.66, -2.26 -3.92, -2.36 -4.52 M0 0 C-0.3 -0.15, -1.4 -0.15, -1.79 -0.9 C-2.19 -1.66, -2.26 -3.92, -2.36 -4.52" stroke="#000000" stroke-width="2" fill="none"></path></g></g><g stroke-linecap="round" transform="translate(158.48847457362473 211.03389294947914) rotate(0 7.021623303911838 0.3240749217190029)"><path d="M0 0 L14.04 0 L14.04 0.65 L0 0.65" stroke="none" stroke-width="0" fill="#000000"></path><path d="M0 0 C4.84 0, 9.68 0, 14.04 0 M0 0 C3.24 0, 6.48 0, 14.04 0 M14.04 0 C14.04 0.24, 14.04 0.47, 14.04 0.65 M14.04 0 C14.04 0.19, 14.04 0.37, 14.04 0.65 M14.04 0.65 C8.68 0.65, 3.31 0.65, 0 0.65 M14.04 0.65 C8.85 0.65, 3.65 0.65, 0 0.65 M0 0.65 C0 0.41, 0 0.16, 0 0 M0 0.65 C0 0.42, 0 0.19, 0 0" stroke="#000000" stroke-width="2" fill="none"></path></g><g transform="translate(140.8619441857025 219.19987671882882) rotate(0 27.18335225098363 5.351053592713313)"><text x="0" y="6.70210718542663" font-family="Virgil, Segoe UI Emoji" font-size="8.561685748341297px" fill="#000000" text-anchor="start" style="white-space: pre;" direction="ltr">MacbookHome</text></g><g stroke-linecap="round" transform="translate(253.35440884393864 155.2352401497971) rotate(0 47.33489970745802 29.383967087022455)"><path d="M0 0 C20.67 0, 41.33 0, 94.67 0 M0 0 C36.63 0, 73.26 0, 94.67 0 M94.67 0 C94.67 12.71, 94.67 25.42, 94.67 58.77 M94.67 0 C94.67 21.45, 94.67 42.9, 94.67 58.77 M94.67 58.77 C69.31 58.77, 43.95 58.77, 0 58.77 M94.67 58.77 C58.5 58.77, 22.34 58.77, 0 58.77 M0 58.77 C0 41.9, 0 25.04, 0 0 M0 58.77 C0 44.1, 0 29.42, 0 0" stroke="#000000" stroke-width="2" fill="none"></path></g><g stroke-linecap="round" transform="translate(256.9873356837898 159.93667488372108) rotate(0 43.70197286760799 25.216786300135666)"><path d="M0 0 L87.4 0 L87.4 50.43 L0 50.43" stroke="none" stroke-width="0" fill="#000000"></path><path d="M0 0 C25.4 0, 50.81 0, 87.4 0 M0 0 C17.64 0, 35.28 0, 87.4 0 M87.4 0 C87.4 12.11, 87.4 24.22, 87.4 50.43 M87.4 0 C87.4 19.14, 87.4 38.29, 87.4 50.43 M87.4 50.43 C69.36 50.43, 51.32 50.43, 0 50.43 M87.4 50.43 C58.78 50.43, 30.15 50.43, 0 50.43 M0 50.43 C0 37.23, 0 24.02, 0 0 M0 50.43 C0 33.68, 0 16.92, 0 0" stroke="#000000" stroke-width="2" fill="none"></path></g><g stroke-linecap="round"><g transform="translate(249.5305146357868 214.21687590265657) rotate(0 51.277011810274075 0)"><path d="M0 0 C28.76 0, 57.53 0, 102.55 0 M0 0 C33.68 0, 67.35 0, 102.55 0" stroke="#000000" stroke-width="2" fill="none"></path></g></g><g stroke-linecap="round"><g transform="translate(252.31175481260635 218.79766600482202) rotate(0 48.88991970649283 0)"><path d="M0 0 C24.81 0, 49.62 0, 97.78 0 M0 0 C37.13 0, 74.25 0, 97.78 0" stroke="#000000" stroke-width="2" fill="none"></path></g></g><g stroke-linecap="round"><g transform="translate(350.1355167203024 218.94825741525392) rotate(0 1.0413945062614403 -2.310114066987012)" fill-rule="evenodd"><path d="" stroke="none" stroke-width="0" fill="#000000" fill-rule="evenodd"></path><path d="M0 0 C0.31 -0.28, 1.52 -0.9, 1.87 -1.67 C2.21 -2.44, 2.03 -4.13, 2.06 -4.62 M0 0 C0.31 -0.28, 1.52 -0.9, 1.87 -1.67 C2.21 -2.44, 2.03 -4.13, 2.06 -4.62" stroke="#000000" stroke-width="2" fill="none"></path></g></g><g stroke-linecap="round"><g transform="translate(252.22600137055616 218.94825741525386) rotate(0 -1.1796327150572097 -2.2609627038596187)" fill-rule="evenodd"><path d="" stroke="none" stroke-width="0" fill="#000000" fill-rule="evenodd"></path><path d="M0 0 C-0.3 -0.15, -1.4 -0.15, -1.79 -0.9 C-2.19 -1.66, -2.26 -3.92, -2.36 -4.52 M0 0 C-0.3 -0.15, -1.4 -0.15, -1.79 -0.9 C-2.19 -1.66, -2.26 -3.92, -2.36 -4.52" stroke="#000000" stroke-width="2" fill="none"></path></g></g><g stroke-linecap="round" transform="translate(293.4730937142496 214.2716034406443) rotate(0 7.021623303911838 0.3240749217190029)"><path d="M0 0 L14.04 0 L14.04 0.65 L0 0.65" stroke="none" stroke-width="0" fill="#000000"></path><path d="M0 0 C4.26 0, 8.52 0, 14.04 0 M0 0 C5.58 0, 11.15 0, 14.04 0 M14.04 0 C14.04 0.22, 14.04 0.43, 14.04 0.65 M14.04 0 C14.04 0.18, 14.04 0.37, 14.04 0.65 M14.04 0.65 C8.46 0.65, 2.87 0.65, 0 0.65 M14.04 0.65 C10.3 0.65, 6.55 0.65, 0 0.65 M0 0.65 C0 0.43, 0 0.21, 0 0 M0 0.65 C0 0.41, 0 0.17, 0 0" stroke="#000000" stroke-width="2" fill="none"></path></g><g transform="translate(284.2616699210792 222.82898751672616) rotate(0 17.765497927808156 5.351053592713313)"><text x="0" y="6.70210718542663" font-family="Virgil, Segoe UI Emoji" font-size="8.561685748341286px" fill="#000000" text-anchor="start" style="white-space: pre;" direction="ltr">Mac Mini</text></g><g stroke-linecap="round"><g transform="translate(123.7097483986459 385.2692205735604) rotate(0 50.123619557962655 -0.7639183763242272)"><path d="M0.62 -0.3 C17.23 -0.59, 84.29 -0.9, 100.76 -1.05 M-0.51 -1.5 C15.88 -1.73, 82.96 -0.19, 100.01 -0.01" stroke="black" stroke-width="4" fill="none"></path></g></g><g stroke-linecap="round"><g transform="translate(126.61595760240772 384.3060413991482) rotate(0 -1.0988629106429642 -16.574065658711902)"><path d="M-0.3 0.38 C-1.53 -0.14, -5.24 -1.72, -6.68 -2.49 C-8.13 -3.25, -8.44 -3.19, -8.97 -4.21 C-9.5 -5.23, -9.86 -6.09, -9.85 -8.59 C-9.84 -11.1, -9.46 -16.89, -8.92 -19.25 C-8.38 -21.6, -7.54 -21.15, -6.6 -22.73 C-5.66 -24.31, -4.95 -27.03, -3.27 -28.72 C-1.59 -30.4, 1.88 -32.17, 3.49 -32.83 C5.09 -33.49, 5.97 -32.94, 6.36 -32.66 M1.75 -0.46 C0.83 -0.92, -3.07 -1.02, -4.47 -1.45 C-5.87 -1.88, -5.76 -2, -6.64 -3.04 C-7.52 -4.08, -9.16 -4.95, -9.77 -7.68 C-10.39 -10.4, -10.54 -16.72, -10.33 -19.4 C-10.11 -22.08, -9.72 -22.53, -8.48 -23.74 C-7.25 -24.95, -4.74 -25.04, -2.94 -26.65 C-1.13 -28.27, 0.51 -32.78, 2.37 -33.44 C4.23 -34.1, 7.58 -31, 8.22 -30.6" stroke="black" stroke-width="4" fill="none"></path></g></g><g stroke-linecap="round"><g transform="translate(130.69594787277407 351.3214142833361) rotate(0 19.621481953109367 -17.0360593838585)"><path d="M0.38 -0.95 C-0.44 -3.04, -3.61 -9.9, -4.31 -12.83 C-5.01 -15.75, -4.17 -16.98, -3.84 -18.5 C-3.51 -20.02, -3.33 -20.44, -2.33 -21.96 C-1.33 -23.48, 0.24 -25.91, 2.14 -27.63 C4.04 -29.35, 7.03 -31.29, 9.05 -32.26 C11.08 -33.24, 11.69 -33.27, 14.27 -33.5 C16.85 -33.74, 21.08 -33.94, 24.53 -33.66 C27.98 -33.39, 32.49 -32.44, 34.96 -31.86 C37.43 -31.28, 37.84 -32.71, 39.34 -30.18 C40.85 -27.65, 43.03 -18.66, 43.99 -16.68 M-0.88 1.16 C-1.39 -0.79, -1.45 -8.77, -2.1 -11.86 C-2.75 -14.94, -4.72 -15.86, -4.75 -17.35 C-4.78 -18.84, -3.69 -19.21, -2.27 -20.79 C-0.85 -22.38, 1.66 -25.35, 3.79 -26.88 C5.92 -28.4, 8.68 -28.61, 10.5 -29.95 C12.31 -31.3, 12.54 -34.24, 14.66 -34.94 C16.79 -35.64, 19.56 -34.96, 23.24 -34.14 C26.92 -33.31, 34.44 -31.08, 36.74 -29.98 C39.04 -28.89, 35.87 -29.38, 37.04 -27.55 C38.21 -25.71, 42.64 -20.36, 43.76 -18.97" stroke="black" stroke-width="4" fill="none"></path></g></g><g stroke-linecap="round"><g transform="translate(176.6746526357161 332.5593788028396) rotate(0 18.981769211622264 4.065947492498509)"><path d="M-0.95 -0.96 C-0.15 -1.67, 2.17 -3.16, 4.53 -3.9 C6.89 -4.64, 8.91 -5.34, 13.21 -5.41 C17.51 -5.48, 26.36 -5.39, 30.33 -4.3 C34.31 -3.22, 35.8 -1.87, 37.04 1.11 C38.29 4.08, 37.62 11.49, 37.81 13.56 M0.75 1.15 C1.93 0.59, 4.76 -1.6, 6.68 -2.5 C8.6 -3.41, 8.28 -4.07, 12.27 -4.28 C16.27 -4.49, 26.7 -4.71, 30.64 -3.74 C34.59 -2.77, 34.56 -1.14, 35.93 1.53 C37.31 4.19, 38.44 9.93, 38.92 12.27" stroke="black" stroke-width="4" fill="none"></path></g></g><g stroke-linecap="round"><g transform="translate(222.55443442599523 384.45169277235215) rotate(0 4.130395913427407 -20.488815295790886)"><path d="M-0.96 -1.08 C0.44 -1.78, 6.13 -3.46, 8.76 -5.21 C11.39 -6.97, 13.59 -9.57, 14.82 -11.6 C16.05 -13.62, 15.73 -14.68, 16.13 -17.37 C16.53 -20.06, 17.65 -24.89, 17.22 -27.73 C16.79 -30.57, 15.18 -32.43, 13.56 -34.39 C11.94 -36.34, 9.52 -38.38, 7.51 -39.47 C5.5 -40.57, 3.4 -40.94, 1.48 -40.95 C-0.44 -40.95, -2.24 -40.34, -4 -39.5 C-5.75 -38.65, -8.4 -36.19, -9.05 -35.86 M0.74 0.97 C1.92 0.53, 5.48 -1.98, 7.67 -3.84 C9.86 -5.71, 12.51 -7.6, 13.87 -10.22 C15.23 -12.84, 15.51 -16.66, 15.83 -19.56 C16.15 -22.47, 15.97 -24.99, 15.78 -27.65 C15.6 -30.31, 16.04 -33.3, 14.72 -35.52 C13.41 -37.73, 10.3 -39.92, 7.89 -40.95 C5.47 -41.98, 2.4 -42.21, 0.24 -41.69 C-1.92 -41.16, -3.57 -38.75, -5.08 -37.79 C-6.6 -36.83, -8.43 -36.07, -8.83 -35.93" stroke="black" stroke-width="4" fill="none"></path></g></g><g transform="translate(142.26801932192694 345.4606126159695) rotate(0 34.5 15)"><text x="0" y="21" font-family="Virgil, Segoe UI Emoji" font-size="23.66975849077438px" fill="#000000" text-anchor="start" style="white-space: pre;" direction="ltr">github</text></g><g stroke-linecap="round"><g transform="translate(37.0702113935634 122.44170014081868) rotate(0 33.28204815504142 -27.17711312888656)"><path d="M0.1 1.04 C10.92 -7.72, 54.52 -44.16, 65.47 -53.5 M-1.31 0.54 C9.86 -8.5, 56.84 -46.25, 67.88 -55.39" stroke="#000000" stroke-width="1" fill="none"></path></g><g transform="translate(37.0702113935634 122.44170014081868) rotate(0 33.28204815504142 -27.17711312888656)"><path d="M68.17 -55.87 L59.85 -41.59 L52.27 -50.13 L66.34 -55.46" stroke="none" stroke-width="0" fill="#000000" fill-rule="evenodd"></path><path d="M69.17 -56.12 C66.07 -51.03, 61.89 -46.46, 61.16 -41.14 M68.28 -55.38 C65.28 -49.99, 63.35 -45.9, 61.44 -41.68 M60.76 -42.42 C59.24 -46.21, 56.86 -48.31, 53.56 -52.93 M61.69 -42.31 C58.88 -44.63, 57.11 -48.18, 52.76 -51.62 M53.59 -51.15 C57.27 -52.26, 60.58 -53.58, 66.72 -53.97 M53.58 -51.11 C56.54 -53.45, 60.23 -54.01, 68.49 -55.15 M67.88 -55.39 C67.88 -55.39, 67.88 -55.39, 67.88 -55.39 M67.88 -55.39 C67.88 -55.39, 67.88 -55.39, 67.88 -55.39" stroke="#000000" stroke-width="1" fill="none"></path></g></g><g stroke-linecap="round"><g transform="translate(158.4449672529384 129.98485199628743) rotate(0 -1.0088735928526091 -24.990074755251406)"><path d="M0.46 -0.21 C0.29 -8.54, -1.31 -41.51, -1.71 -49.77 M-0.76 -1.36 C-0.99 -9.58, -2.17 -40.77, -2.48 -48.71" stroke="#000000" stroke-width="1" fill="none"></path></g><g transform="translate(158.4449672529384 129.98485199628743) rotate(0 -1.0088735928526091 -24.990074755251406)"><path d="M-3.72 -48.4 L4.5 -36.17 L-7.37 -35.85 L-3.56 -50.6" stroke="none" stroke-width="0" fill="#000000" fill-rule="evenodd"></path><path d="M-2.74 -48.28 C-1.92 -45.35, -0.3 -40.87, 3.81 -34.42 M-3.07 -49.35 C-0.57 -43.98, 3.35 -38.46, 3.91 -35.11 M4.71 -36.18 C0.09 -34.52, -3.12 -34.33, -7.73 -34.19 M4.49 -35.34 C-0.03 -35.15, -4 -35.18, -8.2 -35.03 M-7.1 -36.03 C-7.05 -37.63, -5.89 -41.1, -2.4 -47.86 M-8.06 -34.4 C-6.29 -39.97, -4.52 -45.42, -2.17 -48.61 M-2.48 -48.71 C-2.48 -48.71, -2.48 -48.71, -2.48 -48.71 M-2.48 -48.71 C-2.48 -48.71, -2.48 -48.71, -2.48 -48.71" stroke="#000000" stroke-width="1" fill="none"></path></g></g><g stroke-linecap="round"><g transform="translate(285.56282613965715 140.89073578534993) rotate(0 -37.99261848473458 -35.30994424878154)"><path d="M0.77 0.53 C-12.04 -11.06, -63.15 -57.38, -76.15 -69.27 M-0.28 -0.23 C-13.26 -12.22, -63.77 -59.52, -76.76 -71.15" stroke="#000000" stroke-width="1" fill="none"></path></g><g transform="translate(285.56282613965715 140.89073578534993) rotate(0 -37.99261848473458 -35.30994424878154)"><path d="M-77.45 -69.24 L-61.61 -67.54 L-69.39 -59.06 L-78.59 -71" stroke="none" stroke-width="0" fill="#000000" fill-rule="evenodd"></path><path d="M-76.09 -70.34 C-71.01 -70.12, -67.74 -67.69, -62.4 -66.92 M-76.65 -71.33 C-72.64 -69.56, -67.82 -67.59, -63.03 -66.65 M-62.39 -65.9 C-64.25 -64.81, -67.53 -60.19, -70.22 -57.83 M-62.19 -66.54 C-65.4 -63.46, -67.95 -60.61, -71.22 -56.73 M-71 -55.98 C-73.06 -62.01, -76.35 -69.25, -75.91 -71.46 M-70.65 -57.1 C-73.24 -61.42, -74.47 -66.08, -76.41 -71.51 M-76.76 -71.15 C-76.76 -71.15, -76.76 -71.15, -76.76 -71.15 M-76.76 -71.15 C-76.76 -71.15, -76.76 -71.15, -76.76 -71.15" stroke="#000000" stroke-width="1" fill="none"></path></g></g><g stroke-linecap="round"><g transform="translate(176.2514858076259 231.7893869083968) rotate(0 -9.44716079384088 41.268417894793686)"><path d="M1.07 0.31 C-2.37 14.03, -16.68 67.94, -19.96 81.79 M0.17 -0.58 C-2.98 13.36, -14.6 69.41, -17.85 83.12" stroke="#000000" stroke-width="1" fill="none"></path></g><g transform="translate(176.2514858076259 231.7893869083968) rotate(0 -9.44716079384088 41.268417894793686)"><path d="M-18.28 81.85 L-19.76 67.58 L-8.83 72.28 L-16.73 82.01" stroke="none" stroke-width="0" fill="#000000" fill-rule="evenodd"></path><path d="M-17.46 81.7 C-19.46 78.15, -18.62 73.43, -20.97 69.92 M-17.13 83.43 C-19.23 79.32, -20.54 73.61, -21.06 68.31 M-20.61 68.86 C-16.64 69.7, -14.14 69.8, -8.55 72.28 M-20.89 68.56 C-16.88 68.99, -12.74 70.25, -8.32 70.8 M-7.54 71.47 C-12.01 76.25, -15.1 78.52, -17.79 83.47 M-8.95 71.78 C-11.84 75, -14.86 79.57, -18.44 83.35 M-17.85 83.12 C-17.85 83.12, -17.85 83.12, -17.85 83.12 M-17.85 83.12 C-17.85 83.12, -17.85 83.12, -17.85 83.12" stroke="#000000" stroke-width="1" fill="none"></path></g></g><g stroke-linecap="round"><g transform="translate(330.47908590528215 235.17067352949056) rotate(0 -55.02527821445372 44.03776294547133)"><path d="M-0.18 0.43 C-18.45 14.83, -90.7 72.66, -109.01 87.04 M-1.73 -0.39 C-20.2 14.15, -92.22 73.79, -109.87 88.47" stroke="#000000" stroke-width="1" fill="none"></path></g><g transform="translate(330.47908590528215 235.17067352949056) rotate(0 -55.02527821445372 44.03776294547133)"><path d="M-108.94 89.86 L-103.98 73.13 L-94.79 83.24 L-110.04 88.84" stroke="none" stroke-width="0" fill="#000000" fill-rule="evenodd"></path><path d="M-109.34 88.68 C-107.95 82.65, -106.15 78.66, -102.46 73.97 M-109.27 88.6 C-107.75 84.52, -105.6 79.07, -103.42 75.09 M-103.81 75.89 C-100.22 77.68, -96.79 81.65, -96.36 85.06 M-102.94 75.3 C-101.43 77.45, -98.71 79.37, -95.11 84.35 M-95.89 83.28 C-99.66 87.45, -106.22 86.96, -108.9 88.99 M-95.7 84.64 C-99.02 86.25, -103.88 86.26, -110.25 88.09 M-109.87 88.47 C-109.87 88.47, -109.87 88.47, -109.87 88.47 M-109.87 88.47 C-109.87 88.47, -109.87 88.47, -109.87 88.47" stroke="#000000" stroke-width="1" fill="none"></path></g></g><g stroke-linecap="round"><g transform="translate(160.67732809278215 391.37428681074056) rotate(0 1.1573174436855993 41.883620017520144)"><path d="M0.03 1.13 C0.16 15, 1.23 69.41, 1.55 83.09 M-1.42 0.67 C-0.98 14.19, 3.35 67.79, 3.73 81.22" stroke="#000000" stroke-width="1" fill="none"></path></g><g transform="translate(160.67732809278215 391.37428681074056) rotate(0 1.1573174436855993 41.883620017520144)"><path d="M4.22 80.42 L-3.78 67.94 L9.68 66.26 L4.27 82.96" stroke="none" stroke-width="0" fill="#000000" fill-rule="evenodd"></path><path d="M5.14 79.96 C1.76 75.68, -0.6 71.4, -3.18 67.48 M3.43 81.01 C2.67 78.81, 0.55 75.34, -2.87 67.67 M-4.08 66.95 C-0.29 67.09, 4.88 67.22, 9.45 67.3 M-3.4 67.73 C-0.89 68.26, 2.85 68.25, 8.92 67.84 M8.3 67.91 C7.94 72.67, 6.71 76.79, 3.33 79.88 M9.42 67.69 C7.27 72.45, 6.2 76.93, 3.38 81.31 M3.73 81.22 C3.73 81.22, 3.73 81.22, 3.73 81.22 M3.73 81.22 C3.73 81.22, 3.73 81.22, 3.73 81.22" stroke="#000000" stroke-width="1" fill="none"></path></g></g><g stroke-linecap="round"><g transform="translate(181.9754848310634 475.14198700605306) rotate(0 -4.1528157502179965 -41.095492027699976)"><path d="M-0.56 0.15 C-2.35 -13.7, -8.38 -68.52, -9.65 -82.34 M1.35 -0.81 C-0.14 -14.56, -5.67 -67.44, -7.33 -80.95" stroke="#000000" stroke-width="1" fill="none"></path></g><g transform="translate(181.9754848310634 475.14198700605306) rotate(0 -4.1528157502179965 -41.095492027699976)"><path d="M-7.43 -81.23 L2.26 -66.93 L-10.56 -66.9 L-6.11 -80.01" stroke="none" stroke-width="0" fill="#000000" fill-rule="evenodd"></path><path d="M-7.14 -81.88 C-4.56 -75.09, -2.1 -72.2, 1.46 -67.2 M-6.8 -81.02 C-5.94 -77.93, -3.93 -73.61, 1.22 -68.67 M-0.67 -67.85 C-2.87 -68.19, -5.27 -67.36, -12.75 -66.39 M0.01 -67.89 C-4.07 -67.29, -8.78 -66.38, -12.25 -66.15 M-10.88 -67.06 C-10.13 -70.98, -9.19 -75.56, -6.73 -81.13 M-11.4 -67.49 C-10.85 -71.22, -8.94 -76.69, -7.76 -81.51 M-7.33 -80.95 C-7.33 -80.95, -7.33 -80.95, -7.33 -80.95 M-7.33 -80.95 C-7.33 -80.95, -7.33 -80.95, -7.33 -80.95" stroke="#000000" stroke-width="1" fill="none"></path></g></g><g stroke-linecap="round"><g transform="translate(176.2715053388759 317.86146942792806) rotate(0 9.471399530083858 -41.9418883100152)"><path d="M0.28 0.07 C3.79 -13.73, 16.66 -70.14, 19.97 -83.95 M-1.03 -0.94 C2.38 -14.43, 15.44 -68.5, 18.83 -82.45" stroke="#000000" stroke-width="1" fill="none"></path></g><g transform="translate(176.2715053388759 317.86146942792806) rotate(0 9.471399530083858 -41.9418883100152)"><path d="M19.8 -83.97 L23.23 -67.38 L9.83 -70.1 L18.13 -83.05" stroke="none" stroke-width="0" fill="#000000" fill-rule="evenodd"></path><path d="M18.91 -82.91 C19.23 -79.55, 21.26 -75.31, 22.94 -67.87 M19.07 -82.62 C19.61 -76.49, 21.57 -71.68, 21.6 -67.14 M21.75 -67.37 C18.63 -68.72, 13.51 -70.73, 8.38 -70.37 M22.09 -67.94 C18.85 -68.95, 15.43 -70.07, 9.11 -70.91 M10.58 -69.71 C11.55 -74.97, 13.23 -78.46, 19.27 -81.6 M9.99 -71.38 C11.75 -73.92, 15.26 -77.92, 18.85 -82.55 M18.83 -82.45 C18.83 -82.45, 18.83 -82.45, 18.83 -82.45 M18.83 -82.45 C18.83 -82.45, 18.83 -82.45, 18.83 -82.45" stroke="#000000" stroke-width="1" fill="none"></path></g></g><g stroke-linecap="round"><g transform="translate(247.1631069013759 337.17750946699056) rotate(0 48.01810055243317 -48.77333359608892)"><path d="M-0.35 -0.3 C15.53 -16.11, 78.17 -79.64, 94.28 -95.49 M1.66 -1.51 C17.99 -17.6, 80.66 -81.28, 96.39 -97.25" stroke="#000000" stroke-width="1" fill="none"></path></g><g transform="translate(247.1631069013759 337.17750946699056) rotate(0 48.01810055243317 -48.77333359608892)"><path d="M95.49 -99.19 L91.88 -82.61 L82.87 -91.8 L94.46 -98.84" stroke="none" stroke-width="0" fill="#000000" fill-rule="evenodd"></path><path d="M96.01 -98.68 C96.11 -93.13, 95.18 -91.83, 90.4 -84.6 M96.5 -96.94 C95.29 -93.62, 93.59 -91.68, 91.85 -83.16 M91.54 -84.31 C87.38 -85.6, 86.61 -88.28, 82.94 -91.91 M91.69 -82.78 C88.75 -85.46, 87.24 -86.71, 81.77 -92.16 M83.06 -93.15 C86.89 -93.05, 89.52 -94.13, 95.86 -97.7 M82.99 -91.82 C87.25 -93.58, 92.54 -96.15, 95.72 -97.15 M96.39 -97.25 C96.39 -97.25, 96.39 -97.25, 96.39 -97.25 M96.39 -97.25 C96.39 -97.25, 96.39 -97.25, 96.39 -97.25" stroke="#000000" stroke-width="1" fill="none"></path></g></g><g stroke-linecap="round"><g transform="translate(105.24129293653215 86.06779877363118) rotate(0 -27.005930205821045 20.53043448077049)"><path d="M-0.02 -0.33 C-8.92 6.77, -44.23 35.74, -53.28 42.61 M-1.49 -1.54 C-10.52 5.23, -45.02 33.79, -53.99 41.01" stroke="#000000" stroke-width="1" fill="none"></path></g><g transform="translate(105.24129293653215 86.06779877363118) rotate(0 -27.005930205821045 20.53043448077049)"><path d="M-52.67 41.18 L-47.39 25.66 L-41.27 36.97 L-54.02 42.36" stroke="none" stroke-width="0" fill="#000000" fill-rule="evenodd"></path><path d="M-54.4 41.56 C-50.71 36.1, -50.88 33.88, -48.36 26.7 M-54.52 40.67 C-52.55 36.54, -49.35 31.83, -47.39 26.78 M-46.77 28.45 C-45.41 28.94, -44.8 30.72, -40 36.37 M-46.85 27.13 C-45.6 29.55, -44.06 32.06, -39.75 37.77 M-39.14 37.46 C-42.62 37.82, -46.96 39.88, -54.49 40.09 M-40.11 36.97 C-43.37 38.1, -45.96 38.51, -53.34 41.21 M-53.99 41.01 C-53.99 41.01, -53.99 41.01, -53.99 41.01 M-53.99 41.01 C-53.99 41.01, -53.99 41.01, -53.99 41.01" stroke="#000000" stroke-width="1" fill="none"></path></g></g><g stroke-linecap="round"><g transform="translate(178.76473043653215 85.54326264081868) rotate(0 1.4320503458380642 27.136519107772042)"><path d="M-0.36 -0.21 C0.04 8.82, 2.53 45.1, 3.22 54.05 M1.66 -1.37 C1.84 7.89, 2.1 46.31, 2.4 55.64" stroke="#000000" stroke-width="1" fill="none"></path></g><g transform="translate(178.76473043653215 85.54326264081868) rotate(0 1.4320503458380642 27.136519107772042)"><path d="M3.08 54.97 L-4 40.9 L8.94 43.24 L2.55 54.37" stroke="none" stroke-width="0" fill="#000000" fill-rule="evenodd"></path><path d="M2.14 55.95 C0.12 51.67, -2.99 46.52, -3.71 41.67 M2.67 54.99 C0.56 52.02, -0.82 49.72, -4.82 42.81 M-4.94 41.51 C0.63 42.29, 3.5 42.54, 9.59 42.48 M-4.13 42.73 C-1.35 42.59, 1.77 41.67, 8.85 42.43 M8.56 40.56 C5.6 45.35, 5.3 50.31, 1.63 56.53 M8.91 41.54 C6.81 44.75, 4.77 49, 1.78 55.52 M2.4 55.64 C2.4 55.64, 2.4 55.64, 2.4 55.64 M2.4 55.64 C2.4 55.64, 2.4 55.64, 2.4 55.64" stroke="#000000" stroke-width="1" fill="none"></path></g></g><g stroke-linecap="round"><g transform="translate(240.1317348310634 70.43492523847493) rotate(0 33.77553466555665 34.926876362143084)"><path d="M1.03 0.51 C11.98 11.94, 54.12 57.46, 65.1 69.05 M0.12 -0.26 C11.5 11.25, 56.32 58.17, 67.43 70.12" stroke="#000000" stroke-width="1" fill="none"></path></g><g transform="translate(240.1317348310634 70.43492523847493) rotate(0 33.77553466555665 34.926876362143084)"><path d="M66.83 68.39 L52.29 66.3 L63.72 55.13 L68.91 68.15" stroke="none" stroke-width="0" fill="#000000" fill-rule="evenodd"></path><path d="M68.08 69.21 C62.78 70.24, 60.5 68.8, 53 66 M68.02 69.88 C64.04 68.71, 59.67 66.4, 52.81 64.46 M54.24 64.06 C56.77 62.2, 59.62 58.76, 62.4 54.64 M53.39 64.06 C54.91 63.21, 57.4 61.38, 63.1 55.51 M62.77 55.75 C63.05 60.68, 66.39 66.95, 68.9 69.61 M62.26 56.13 C63.65 59.75, 64.69 63.65, 67.92 70.17 M67.43 70.12 C67.43 70.12, 67.43 70.12, 67.43 70.12 M67.43 70.12 C67.43 70.12, 67.43 70.12, 67.43 70.12" stroke="#000000" stroke-width="1" fill="none"></path></g></g></svg>